<svg width="24" height="19" viewBox="0 0 24 19" fill="none" xmlns="http://www.w3.org/2000/svg">
<path d="M21.2327 12.7405L19.2641 8.28258H19.2177C18.1875 8.28258 17.3494 7.4445 17.3494 6.41428V5.62458C17.3494 5.13469 16.9508 4.73616 16.461 4.73616H7.53895C7.04906 4.73616 6.65053 5.13473 6.65053 5.62458V6.41428C6.65053 7.44445 5.81245 8.28258 4.78223 8.28258H4.73541L2.76684 12.7405C2.29238 13.815 2.05177 14.9555 2.05177 16.1303V17.5998C2.05177 18.3512 2.66311 18.9625 3.41452 18.9625H20.585C21.3364 18.9625 21.9478 18.3512 21.9478 17.5998V16.1303C21.9479 14.9556 21.7073 13.8151 21.2327 12.7405ZM8.91033 16.3729C8.36981 16.3729 7.93158 15.9346 7.93158 15.3941C7.93158 14.8536 8.36981 14.4154 8.91033 14.4154C9.45094 14.4154 9.88908 14.8536 9.88908 15.3941C9.88908 15.9346 9.45089 16.3729 8.91033 16.3729ZM8.91033 13.3978C8.36981 13.3978 7.93158 12.9596 7.93158 12.4191C7.93158 11.8785 8.36981 11.4403 8.91033 11.4403C9.45094 11.4403 9.88908 11.8785 9.88908 12.4191C9.88908 12.9596 9.45089 13.3978 8.91033 13.3978ZM8.91033 10.4228C8.36981 10.4228 7.93158 9.98456 7.93158 9.44405C7.93158 8.90353 8.36981 8.4653 8.91033 8.4653C9.45094 8.4653 9.88908 8.90353 9.88908 9.44405C9.88908 9.98456 9.45089 10.4228 8.91033 10.4228ZM12 16.3729C11.4594 16.3729 11.0212 15.9346 11.0212 15.3941C11.0212 14.8536 11.4594 14.4154 12 14.4154C12.5405 14.4154 12.9787 14.8536 12.9787 15.3941C12.9787 15.9346 12.5406 16.3729 12 16.3729ZM12 13.3978C11.4594 13.3978 11.0212 12.9596 11.0212 12.4191C11.0212 11.8785 11.4594 11.4403 12 11.4403C12.5405 11.4403 12.9787 11.8785 12.9787 12.4191C12.9787 12.9596 12.5406 13.3978 12 13.3978ZM12 10.4228C11.4594 10.4228 11.0212 9.98456 11.0212 9.44405C11.0212 8.90353 11.4594 8.4653 12 8.4653C12.5405 8.4653 12.9787 8.90353 12.9787 9.44405C12.9787 9.98456 12.5406 10.4228 12 10.4228ZM15.0897 16.3729C14.5491 16.3729 14.1109 15.9346 14.1109 15.3941C14.1109 14.8536 14.5492 14.4154 15.0897 14.4154C15.6302 14.4154 16.0684 14.8536 16.0684 15.3941C16.0684 15.9346 15.6302 16.3729 15.0897 16.3729ZM15.0897 13.3978C14.5491 13.3978 14.1109 12.9596 14.1109 12.4191C14.1109 11.8785 14.5492 11.4403 15.0897 11.4403C15.6302 11.4403 16.0684 11.8785 16.0684 12.4191C16.0684 12.9596 15.6302 13.3978 15.0897 13.3978ZM15.0897 10.4228C14.5491 10.4228 14.1109 9.98456 14.1109 9.44405C14.1109 8.90353 14.5492 8.4653 15.0897 8.4653C15.6302 8.4653 16.0684 8.90353 16.0684 9.44405C16.0684 9.98456 15.6302 10.4228 15.0897 10.4228ZM17.746 0H6.25397C3.52823 0 1.20455 1.75308 0.350156 4.19081H5.96259C6.35283 3.76214 6.915 3.4927 7.539 3.4927H16.461C17.085 3.4927 17.6472 3.76219 18.0374 4.19081H23.6498C22.7955 1.75303 20.4718 0 17.746 0ZM23.9242 5.28159H18.5649C18.5835 5.39498 18.5928 5.50968 18.5929 5.62458V6.41428C18.5929 6.75881 18.8732 7.03908 19.2177 7.03908H23.2149C23.6478 7.03908 24 6.68686 24 6.25392C24 5.92834 23.9747 5.60325 23.9242 5.28159ZM0.0757032 5.28155C0.0252782 5.60323 -3.26036e-05 5.92836 3.15185e-08 6.25397C3.15185e-08 6.68691 0.352219 7.03913 0.785156 7.03913H4.78223C5.12677 7.03913 5.40703 6.75886 5.40703 6.41433V5.62463C5.40703 5.50786 5.41683 5.39334 5.43502 5.28159L0.0757032 5.28155Z" fill="#CDB255"/>
</svg>
