<svg width="24" height="24" viewBox="0 0 24 24" fill="none" xmlns="http://www.w3.org/2000/svg">
<g clip-path="url(#clip0_598_287)">
<path d="M20.5301 10.0713C20.5589 6.68758 17.677 3.58562 14.1058 3.15667C14.0348 3.14825 13.9574 3.13543 13.8755 3.12186C13.6987 3.09257 13.5159 3.06246 13.3314 3.06246C12.5995 3.06246 12.4038 3.5766 12.3523 3.88323C12.3022 4.18137 12.35 4.43173 12.4941 4.62768C12.7365 4.95727 13.163 5.01578 13.5055 5.06266C13.6059 5.07652 13.7007 5.08942 13.78 5.10723C16.9885 5.82417 18.0689 6.95135 18.5969 10.1326C18.6098 10.2104 18.6156 10.3061 18.6218 10.4077C18.6448 10.788 18.6928 11.5792 19.5434 11.5792C19.6142 11.5792 19.6904 11.5731 19.7696 11.561C20.5617 11.4406 20.5368 10.7174 20.5249 10.3699C20.5216 10.2721 20.5184 10.1795 20.5266 10.1179C20.5289 10.1024 20.53 10.0869 20.5301 10.0713Z" fill="white"/>
<path d="M13.1238 1.91463C13.2188 1.92149 13.3087 1.92805 13.3837 1.93953C18.6524 2.74979 21.0754 5.24609 21.7469 10.556C21.7583 10.6463 21.7601 10.7564 21.762 10.873C21.7687 11.2878 21.7825 12.1509 22.7093 12.1687L22.7381 12.169C23.0287 12.169 23.26 12.0814 23.4253 11.9083C23.7139 11.6065 23.6937 11.1582 23.6775 10.7979C23.6735 10.7095 23.6697 10.6263 23.6707 10.5534C23.7377 5.12266 19.0368 0.198112 13.611 0.0149814C13.5885 0.014236 13.567 0.0154286 13.5453 0.0184845C13.524 0.0211705 13.5025 0.0223412 13.4811 0.0219876C13.427 0.0219876 13.3604 0.0172919 13.2898 0.0125217C13.2045 0.00670807 13.1077 0 13.0096 0C12.1456 0 11.9813 0.614162 11.9603 0.980273C11.9118 1.82639 12.7304 1.88594 13.1238 1.91463ZM21.4927 17.4189C21.3795 17.3331 21.2674 17.246 21.1564 17.1574C20.5811 16.6945 19.9691 16.2678 19.3772 15.8551C19.2544 15.7696 19.1317 15.6839 19.0092 15.598C18.251 15.0654 17.5694 14.8067 16.9254 14.8067C16.0581 14.8067 15.3019 15.2859 14.6777 16.2309C14.4012 16.6499 14.0657 16.8536 13.6523 16.8536C13.4078 16.8536 13.13 16.7838 12.8267 16.6462C10.3796 15.5364 8.6321 13.835 7.63282 11.589C7.14977 10.5035 7.30636 9.79394 8.1565 9.21645C8.63926 8.88879 9.53784 8.27881 9.47419 7.11071C9.40211 5.78422 6.47531 1.79299 5.24214 1.33968C4.72003 1.14768 4.17146 1.14589 3.60872 1.3352C2.19108 1.81178 1.17377 2.64872 0.666488 3.7554C0.176277 4.82475 0.198413 6.08035 0.730513 7.38648C2.26875 11.1628 4.43143 14.4553 7.15871 17.1723C9.82823 19.832 13.1093 22.0106 16.9107 23.6475C17.2533 23.7949 17.6127 23.8753 17.8752 23.934C17.9646 23.9541 18.0418 23.9712 18.0981 23.9867C18.129 23.9951 18.1609 23.9996 18.1929 23.9999L18.2229 24.0001C20.0109 24.0001 22.1578 22.3663 22.8171 20.5037C23.3948 18.8727 22.3401 18.0666 21.4927 17.4189ZM13.9146 6.22837C13.6085 6.23612 12.9714 6.25193 12.7479 6.90075C12.6433 7.20395 12.6558 7.46721 12.7851 7.68321C12.9749 8.00012 13.3385 8.09724 13.6692 8.15053C14.8685 8.34298 15.4845 9.00619 15.6077 10.2375C15.6649 10.8116 16.0515 11.2125 16.5479 11.2125C16.5846 11.2125 16.6222 11.2104 16.6595 11.2058C17.2565 11.1348 17.5459 10.6962 17.5198 9.90224C17.5293 9.07364 17.0957 8.13295 16.3582 7.38365C15.6181 6.63205 14.726 6.20877 13.9146 6.22837Z" fill="white"/>
</g>
<defs>
<clipPath id="clip0_598_287">
<rect width="24" height="24" fill="white"/>
</clipPath>
</defs>
</svg>
