<svg width="24" height="24" viewBox="0 0 24 24" fill="none" xmlns="http://www.w3.org/2000/svg">
<path d="M20.2156 10.0713C20.2445 6.68758 17.3625 3.58562 13.7914 3.15667C13.7203 3.14825 13.643 3.13543 13.5611 3.12186C13.3843 3.09257 13.2014 3.06246 13.017 3.06246C12.285 3.06246 12.0894 3.5766 12.0379 3.88323C11.9878 4.18137 12.0356 4.43173 12.1796 4.62768C12.422 4.95727 12.8485 5.01578 13.1911 5.06266C13.2915 5.07652 13.3862 5.08942 13.4655 5.10723C16.674 5.82417 17.7544 6.95135 18.2824 10.1326C18.2953 10.2104 18.3011 10.3061 18.3073 10.4077C18.3303 10.788 18.3783 11.5792 19.2289 11.5792C19.2997 11.5792 19.3759 11.5731 19.4551 11.561C20.2472 11.4406 20.2224 10.7174 20.2105 10.3699C20.2071 10.2721 20.2039 10.1795 20.2122 10.1179C20.2144 10.1024 20.2155 10.0869 20.2156 10.0713Z" fill="#CDB255"/>
<path d="M12.8093 1.91463C12.9043 1.92149 12.9943 1.92805 13.0692 1.93953C18.3379 2.74979 20.761 5.24609 21.4325 10.556C21.4439 10.6463 21.4456 10.7564 21.4475 10.873C21.4542 11.2878 21.468 12.1509 22.3948 12.1687L22.4236 12.169C22.7143 12.169 22.9455 12.0814 23.1109 11.9083C23.3994 11.6065 23.3793 11.1582 23.363 10.7979C23.3591 10.7095 23.3553 10.6263 23.3563 10.5534C23.4233 5.12266 18.7224 0.198112 13.2965 0.0149814C13.274 0.014236 13.2526 0.0154286 13.2309 0.0184845C13.2096 0.0211705 13.1881 0.0223412 13.1666 0.0219876C13.1125 0.0219876 13.0459 0.0172919 12.9754 0.0125217C12.89 0.00670807 12.7933 0 12.6952 0C11.8311 0 11.6668 0.614162 11.6458 0.980273C11.5974 1.82639 12.4159 1.88594 12.8093 1.91463ZM21.1782 17.4189C21.065 17.3331 20.9529 17.246 20.8419 17.1574C20.2667 16.6945 19.6547 16.2678 19.0628 15.8551C18.94 15.7696 18.8173 15.6839 18.6947 15.598C17.9366 15.0654 17.255 14.8067 16.611 14.8067C15.7436 14.8067 14.9874 15.2859 14.3633 16.2309C14.0867 16.6499 13.7513 16.8536 13.3378 16.8536C13.0934 16.8536 12.8156 16.7838 12.5123 16.6462C10.0651 15.5364 8.31765 13.835 7.31837 11.589C6.83531 10.5035 6.99191 9.79394 7.84205 9.21645C8.32481 8.88879 9.22339 8.27881 9.15974 7.11071C9.08766 5.78422 6.16085 1.79299 4.92769 1.33968C4.40558 1.14768 3.857 1.14589 3.29427 1.3352C1.87663 1.81178 0.859314 2.64872 0.352035 3.7554C-0.138176 4.82475 -0.11604 6.08035 0.41606 7.38648C1.9543 11.1628 4.11698 14.4553 6.84426 17.1723C9.51377 19.832 12.7948 22.0106 16.5962 23.6475C16.9389 23.7949 17.2983 23.8753 17.5607 23.934C17.6501 23.9541 17.7274 23.9712 17.7836 23.9867C17.8146 23.9951 17.8465 23.9996 17.8784 23.9999L17.9085 24.0001C19.6964 24.0001 21.8434 22.3663 22.5027 20.5037C23.0803 18.8727 22.0257 18.0666 21.1782 17.4189ZM13.6001 6.22837C13.294 6.23612 12.657 6.25193 12.4334 6.90075C12.3289 7.20395 12.3414 7.46721 12.4707 7.68321C12.6605 8.00012 13.024 8.09724 13.3547 8.15053C14.5541 8.34298 15.17 9.00619 15.2932 10.2375C15.3505 10.8116 15.7371 11.2125 16.2335 11.2125C16.2701 11.2125 16.3077 11.2104 16.3451 11.2058C16.9421 11.1348 17.2315 10.6962 17.2053 9.90224C17.2149 9.07364 16.7812 8.13295 16.0437 7.38365C15.3037 6.63205 14.4116 6.20877 13.6001 6.22837Z" fill="#CDB255"/>
</svg>
