<svg width="24" height="24" viewBox="0 0 24 24" fill="none" xmlns="http://www.w3.org/2000/svg">
<g clip-path="url(#clip0_376_54997)">
<path d="M20.4844 8.53088C21.2205 8.53088 21.9192 8.69359 22.5469 8.98449V7.07776H17.625C17.2367 7.07776 16.9219 6.76295 16.9219 6.37463V1.45276H0.703125C0.314812 1.45276 0 1.76757 0 2.15588V19.0778C0 19.4661 0.314812 19.7809 0.703125 19.7809H16.2656V15.9854C15.8195 15.245 15.5625 14.3784 15.5625 13.4528C15.5625 10.7388 17.7705 8.53088 20.4844 8.53088ZM4.26562 5.67151H4.96875V5.01526C4.96875 4.62695 5.28356 4.31213 5.67188 4.31213C6.06019 4.31213 6.375 4.62695 6.375 5.01526V5.67151H7.07812C7.46644 5.67151 7.78125 5.98632 7.78125 6.37463C7.78125 6.76295 7.46644 7.07776 7.07812 7.07776H6.375V7.82776C6.375 8.21607 6.06019 8.53088 5.67188 8.53088C5.28356 8.53088 4.96875 8.21607 4.96875 7.82776V7.07776H4.26562C3.87731 7.07776 3.5625 6.76295 3.5625 6.37463C3.5625 5.98632 3.87731 5.67151 4.26562 5.67151ZM13.4062 16.9684H4.26562C3.87731 16.9684 3.5625 16.6536 3.5625 16.2653C3.5625 15.8769 3.87731 15.5621 4.26562 15.5621H13.4062C13.7946 15.5621 14.1094 15.8769 14.1094 16.2653C14.1094 16.6536 13.7946 16.9684 13.4062 16.9684ZM13.4062 14.1559H4.26562C3.87731 14.1559 3.5625 13.8411 3.5625 13.4528C3.5625 13.0644 3.87731 12.7496 4.26562 12.7496H13.4062C13.7946 12.7496 14.1094 13.0644 14.1094 13.4528C14.1094 13.8411 13.7946 14.1559 13.4062 14.1559ZM13.4062 11.3434H4.26562C3.87731 11.3434 3.5625 11.0286 3.5625 10.6403C3.5625 10.2519 3.87731 9.93713 4.26562 9.93713H13.4062C13.7946 9.93713 14.1094 10.2519 14.1094 10.6403C14.1094 11.0286 13.7946 11.3434 13.4062 11.3434Z" fill="#CDB255"/>
<path d="M18.3281 1.86465V5.67151H22.135L18.3281 1.86465ZM17.6719 17.4895V21.8434C17.6719 22.4089 18.3082 22.7432 18.7739 22.4224L20.4844 21.2441L22.1948 22.4224C22.6584 22.7417 23.2969 22.4107 23.2969 21.8434V17.4895C21.6076 18.67 19.3619 18.6705 17.6719 17.4895ZM20.4844 16.9684C22.4229 16.9684 24 15.3913 24 13.4528C24 11.5142 22.4229 9.93713 20.4844 9.93713C18.5459 9.93713 16.9688 11.5142 16.9688 13.4528C16.9688 15.3913 18.5459 16.9684 20.4844 16.9684ZM20.4844 11.3434C21.6475 11.3434 22.5938 12.2896 22.5938 13.4528C22.5938 14.6159 21.6475 15.5621 20.4844 15.5621C19.3213 15.5621 18.375 14.6159 18.375 13.4528C18.375 12.2896 19.3213 11.3434 20.4844 11.3434Z" fill="#CDB255"/>
</g>
<defs>
<clipPath id="clip0_376_54997">
<rect width="24" height="24" fill="white"/>
</clipPath>
</defs>
</svg>
