<svg width="40" height="40" viewBox="0 0 40 40" fill="none" xmlns="http://www.w3.org/2000/svg">
<g clip-path="url(#clip0_378_54814)">
<path d="M34.1406 14.218C35.3674 14.218 36.5319 14.4892 37.5781 14.974V11.7961H29.375C28.7278 11.7961 28.2031 11.2715 28.2031 10.6243V2.42114H1.17187C0.524687 2.42114 0 2.94583 0 3.59302V31.7961C0 32.4433 0.524687 32.968 1.17187 32.968H27.1094V26.6422C26.3658 25.4082 25.9375 23.9638 25.9375 22.4211C25.9375 17.8979 29.6174 14.218 34.1406 14.218ZM7.10937 9.45239H8.28125V8.35864C8.28125 7.71145 8.80594 7.18677 9.45312 7.18677C10.1003 7.18677 10.625 7.71145 10.625 8.35864V9.45239H11.7969C12.4441 9.45239 12.9687 9.97708 12.9687 10.6243C12.9687 11.2715 12.4441 11.7961 11.7969 11.7961H10.625V13.0461C10.625 13.6933 10.1003 14.218 9.45312 14.218C8.80594 14.218 8.28125 13.6933 8.28125 13.0461V11.7961H7.10937C6.46219 11.7961 5.9375 11.2715 5.9375 10.6243C5.9375 9.97708 6.46219 9.45239 7.10937 9.45239ZM22.3437 28.2805H7.10937C6.46219 28.2805 5.9375 27.7558 5.9375 27.1086C5.9375 26.4615 6.46219 25.9368 7.10937 25.9368H22.3437C22.9909 25.9368 23.5156 26.4615 23.5156 27.1086C23.5156 27.7558 22.9909 28.2805 22.3437 28.2805ZM22.3437 23.593H7.10937C6.46219 23.593 5.9375 23.0683 5.9375 22.4211C5.9375 21.774 6.46219 21.2493 7.10937 21.2493H22.3437C22.9909 21.2493 23.5156 21.774 23.5156 22.4211C23.5156 23.0683 22.9909 23.593 22.3437 23.593ZM22.3437 18.9055H7.10937C6.46219 18.9055 5.9375 18.3808 5.9375 17.7336C5.9375 17.0865 6.46219 16.5618 7.10937 16.5618H22.3437C22.9909 16.5618 23.5156 17.0865 23.5156 17.7336C23.5156 18.3808 22.9909 18.9055 22.3437 18.9055Z" fill="white"/>
<path d="M30.5469 3.10763V9.45239H36.8916L30.5469 3.10763ZM29.4531 29.1491V36.4055C29.4531 37.3481 30.5137 37.9053 31.2898 37.3706L34.1406 35.4067L36.9914 37.3706C37.764 37.9027 38.8281 37.3511 38.8281 36.4055V29.1491C36.0127 31.1166 32.2698 31.1174 29.4531 29.1491ZM34.1406 28.2805C37.3715 28.2805 40 25.652 40 22.4211C40 19.1903 37.3715 16.5618 34.1406 16.5618C30.9098 16.5618 28.2812 19.1903 28.2812 22.4211C28.2812 25.652 30.9098 28.2805 34.1406 28.2805ZM34.1406 18.9055C36.0791 18.9055 37.6562 20.4826 37.6562 22.4211C37.6562 24.3597 36.0791 25.9368 34.1406 25.9368C32.2021 25.9368 30.625 24.3597 30.625 22.4211C30.625 20.4826 32.2021 18.9055 34.1406 18.9055Z" fill="white"/>
</g>
<defs>
<clipPath id="clip0_378_54814">
<rect width="40" height="40" fill="white"/>
</clipPath>
</defs>
</svg>
