<svg width="40" height="40" viewBox="0 0 40 40" fill="none" xmlns="http://www.w3.org/2000/svg">
<path d="M33.9022 12.8741C35.8511 12.8741 37.4282 11.2928 37.4282 9.34807V6.92151C37.4282 4.98463 35.8668 3.40893 33.9283 3.39487C31.9745 3.38065 30.3761 5.02932 30.3761 6.98307V9.34807C30.3762 11.296 31.9558 12.8741 33.9022 12.8741ZM29.5094 21.5571C29.5086 21.5423 29.5086 21.5267 29.5086 21.511C29.5086 18.9259 31.6117 16.8235 34.1961 16.8235C35.2406 16.8235 36.2336 17.1626 37.0461 17.7892C37.2048 15.7584 34.2726 13.9212 31.6164 14.4196C30.4414 14.6407 29.6102 15.2892 28.9359 16.2618C27.1352 18.8556 26.7711 20.1548 24.6117 22.2173L29.6016 26.1939L29.5094 21.5571ZM5.07812 34.2595C10.4742 34.054 22.3984 31.4923 28.3281 28.1759L21.6539 22.8564C20.0526 23.2663 18.6712 24.1579 17.6555 25.3313C17.4546 25.5636 17.1978 25.7408 16.9094 25.8462C14.0055 26.9032 9.63672 29.0899 4.7625 29.5454C3.55437 29.6575 2.625 30.6777 2.625 31.8978C2.625 33.2384 3.73828 34.311 5.07812 34.2595Z" fill="#CDB255"/>
<path d="M36.3422 32.1524C36.5446 21.374 36.5117 23.1621 36.5398 21.511C36.5398 20.223 35.4959 19.1672 34.1961 19.1672C32.9016 19.1672 31.8523 20.2164 31.8523 21.511C31.9828 28.0744 31.9377 25.6474 32.05 32.1524C32.0703 33.3235 33.0258 34.2617 34.1961 34.2617C35.3672 34.2617 36.3219 33.3235 36.3422 32.1524ZM38.8281 34.2617H1.17188C0.524687 34.2617 0 34.7864 0 35.4336C0 36.0808 0.524687 36.6055 1.17188 36.6055H38.8281C39.4753 36.6055 40 36.0808 40 35.4336C40 34.7864 39.4753 34.2617 38.8281 34.2617Z" fill="#CDB255"/>
</svg>
