<svg width="40" height="36" viewBox="0 0 40 36" fill="none" xmlns="http://www.w3.org/2000/svg">
<path d="M34.1406 11.7969C35.3674 11.7969 36.5319 12.068 37.5781 12.5529V9.375H29.375C28.7278 9.375 28.2031 8.85031 28.2031 8.20312V0H1.17187C0.524687 0 0 0.524688 0 1.17188V29.375C0 30.0222 0.524687 30.5469 1.17187 30.5469H27.1094V24.221C26.3658 22.987 25.9375 21.5427 25.9375 20C25.9375 15.4768 29.6174 11.7969 34.1406 11.7969ZM7.10937 7.03125H8.28125V5.9375C8.28125 5.29031 8.80594 4.76562 9.45312 4.76562C10.1003 4.76562 10.625 5.29031 10.625 5.9375V7.03125H11.7969C12.4441 7.03125 12.9687 7.55594 12.9687 8.20312C12.9687 8.85031 12.4441 9.375 11.7969 9.375H10.625V10.625C10.625 11.2722 10.1003 11.7969 9.45312 11.7969C8.80594 11.7969 8.28125 11.2722 8.28125 10.625V9.375H7.10937C6.46219 9.375 5.9375 8.85031 5.9375 8.20312C5.9375 7.55594 6.46219 7.03125 7.10937 7.03125ZM22.3437 25.8594H7.10937C6.46219 25.8594 5.9375 25.3347 5.9375 24.6875C5.9375 24.0403 6.46219 23.5156 7.10937 23.5156H22.3437C22.9909 23.5156 23.5156 24.0403 23.5156 24.6875C23.5156 25.3347 22.9909 25.8594 22.3437 25.8594ZM22.3437 21.1719H7.10937C6.46219 21.1719 5.9375 20.6472 5.9375 20C5.9375 19.3528 6.46219 18.8281 7.10937 18.8281H22.3437C22.9909 18.8281 23.5156 19.3528 23.5156 20C23.5156 20.6472 22.9909 21.1719 22.3437 21.1719ZM22.3437 16.4844H7.10937C6.46219 16.4844 5.9375 15.9597 5.9375 15.3125C5.9375 14.6653 6.46219 14.1406 7.10937 14.1406H22.3437C22.9909 14.1406 23.5156 14.6653 23.5156 15.3125C23.5156 15.9597 22.9909 16.4844 22.3437 16.4844Z" fill="white"/>
<path d="M30.5469 0.686484V7.03125H36.8916L30.5469 0.686484ZM29.4531 26.728V33.9844C29.4531 34.9269 30.5137 35.4841 31.2898 34.9494L34.1406 32.9855L36.9914 34.9494C37.764 35.4816 38.8281 34.9299 38.8281 33.9844V26.728C36.0127 28.6955 32.2698 28.6962 29.4531 26.728ZM34.1406 25.8594C37.3715 25.8594 40 23.2309 40 20C40 16.7691 37.3715 14.1406 34.1406 14.1406C30.9098 14.1406 28.2812 16.7691 28.2812 20C28.2812 23.2309 30.9098 25.8594 34.1406 25.8594ZM34.1406 16.4844C36.0791 16.4844 37.6562 18.0615 37.6562 20C37.6562 21.9385 36.0791 23.5156 34.1406 23.5156C32.2021 23.5156 30.625 21.9385 30.625 20C30.625 18.0615 32.2021 16.4844 34.1406 16.4844Z" fill="white"/>
</svg>
