<svg width="13" height="24" viewBox="0 0 13 24" fill="none" xmlns="http://www.w3.org/2000/svg">
<path d="M0.387097 12.7824H3.01788V23.6129C3.01788 23.7156 3.05867 23.814 3.13126 23.8866C3.20386 23.9592 3.30232 24 3.40498 24H7.86557C7.96824 24 8.0667 23.9592 8.13929 23.8866C8.21189 23.814 8.25267 23.7156 8.25267 23.6129V12.8334H11.277C11.372 12.8334 11.4637 12.7985 11.5346 12.7353C11.6055 12.672 11.6507 12.5849 11.6615 12.4905L12.1209 8.50329C12.1271 8.44909 12.1218 8.39418 12.1053 8.34216C12.0889 8.29014 12.0616 8.24219 12.0253 8.20146C11.989 8.16072 11.9445 8.12813 11.8947 8.1058C11.8449 8.08348 11.7909 8.07193 11.7364 8.07191H8.25282V5.57251C8.25282 4.81906 8.6585 4.437 9.45871 4.437H11.7364C11.8391 4.437 11.9375 4.39622 12.0101 4.32362C12.0827 4.25103 12.1235 4.15257 12.1235 4.0499V0.38998C12.1235 0.287315 12.0827 0.188856 12.0101 0.116261C11.9375 0.0436661 11.8391 0.00288278 11.7364 0.00288278H8.59742C8.54953 0.000808187 8.50159 -0.000146912 8.45365 1.82663e-05C7.90901 1.82663e-05 6.01587 0.106934 4.52044 1.48268C2.86351 3.00722 3.09383 4.83261 3.14888 5.1491V8.07184H0.387097C0.284432 8.07184 0.185972 8.11262 0.113378 8.18521C0.040783 8.25781 7.74301e-09 8.35627 7.74301e-09 8.45893V12.3952C-1.01604e-05 12.4461 0.00999448 12.4964 0.0294434 12.5434C0.0488922 12.5904 0.0774043 12.6331 0.113351 12.669C0.149297 12.705 0.191973 12.7335 0.238943 12.7529C0.285913 12.7724 0.336256 12.7824 0.387097 12.7824Z" fill="black"/>
</svg>
