<svg width="67" height="48" viewBox="0 0 67 48" fill="none" xmlns="http://www.w3.org/2000/svg">
<path fill-rule="evenodd" clip-rule="evenodd" d="M66.0696 0H33.5067L32.8118 0.0495868L32.4643 0.297521L32.4146 0.495868V38.7769L32.365 44.4298L32.2657 44.6777L32.0672 44.9256L31.6701 45.0248H31.0744L30.1313 44.876L29.1385 44.5785L28.4436 44.281L27.5004 43.7355L26.7062 43.1405L25.9616 42.3967L25.366 41.7025L24.8696 41.0578L24.2243 40.2149L23.3308 38.876L22.6358 37.7355L20.8985 34.8099L19.7071 32.8264L19.2108 31.9835L18.5655 30.8926L17.7216 29.5041L16.431 27.3223L15.5871 25.9339L14.7433 24.4959L13.9987 23.2562L13.3534 22.1653L12.5592 20.8264L11.9635 19.8347L11.4175 18.9421L10.7722 17.8512L9.28303 15.3719L8.43918 13.9339L7.99243 13.1901L7.4464 12.2975L6.50327 10.7107L5.85797 9.61983L5.01411 8.18182L4.51772 7.43802L4.31917 7.38843L4.26953 7.53719V12.3967L4.41845 12.9917L4.66664 13.5372L5.21267 14.4298L5.95724 15.6198L6.60255 16.6116L7.34713 17.8017L7.79387 18.595L7.99243 19.0413L8.09171 19.7355L8.14135 47.405L8.19098 47.5537L8.48882 47.405L8.93556 46.8595L9.58087 46.0165L9.68014 45.7686H9.77942L10.2262 45.124L10.2758 44.9256H10.3751L10.6729 44.4298L10.8218 43.9835L10.8715 36.843L10.9211 26.5785L10.9707 24.0992L11.1693 24.2479L11.5664 24.843L12.1124 25.6859L12.9563 27.124L13.8001 28.5124L14.4455 29.6033L15.0411 30.595L15.7857 31.7851L16.6296 33.2231L17.2252 34.1653L18.1684 35.7521L19.9553 38.7273L20.7496 40.0165L21.4941 41.2562L22.338 42.6942L22.8344 43.438L23.3308 44.0826L23.7775 44.6281L24.125 44.9752L24.5221 45.3223L25.0681 45.8182L25.912 46.4132L26.7062 46.8595L27.5004 47.2562L28.6917 47.6529L30.032 47.9504L31.5708 48H32.3154L33.5563 47.9504L34.1024 47.8512L35.1448 47.5537L36.1872 47.157L37.3289 46.562L38.3216 45.9174L39.2151 45.2727V45.1736H39.3144L39.513 45.0248L40.059 44.4793L40.7539 43.686L41.151 43.1901L41.6971 42.3967L42.1935 41.5041L42.5906 40.6116L43.0373 39.2727L43.2855 38.1322L43.4344 36.9917L43.4841 20.5785L43.7323 20.4793L44.1294 20.3802L55.6952 20.281L56.2908 20.2314L56.3901 20.1818L56.7376 19.7851L57.085 19.2893L57.4822 18.7438L58.0778 17.7521L58.1275 17.4545L58.0282 17.405H43.7819L43.5337 17.157L43.4841 15.8678V3.71901L43.5337 3.27273L43.633 3.17355L43.9308 2.97521L44.6754 2.92562L60.0137 2.87603H63.7366L64.2826 2.82645L64.5308 2.57851L65.1265 1.73554L65.5733 1.09091L66.02 0.297521L66.0696 0ZM36.0879 2.87603H39.8604L40.1086 2.97521L40.4065 3.22314L40.4561 3.32231V35.4545L40.3568 36.7438L40.2575 37.5868L40.0094 38.9752L39.6619 40.0661L39.1159 41.1074L38.6195 41.8017L38.1727 42.2975L37.726 42.7438H37.6267L37.5771 42.8926L37.0807 43.2397H36.9814V43.3388H36.8325V43.438L36.1375 43.8347L35.8893 43.9339L35.5419 43.8347L35.393 43.7355L35.3433 31.8843V13.8347L35.393 3.32231L35.6412 3.02479L36.0879 2.87603Z" fill="#CDB255"/>
<path d="M0.0993994 9.42148L0.347593 9.52065L0.744702 10.0661L1.29073 10.9587L2.13458 12.3471L2.53169 13.0413L2.73025 13.5372L2.77989 14.9752L2.73025 43.9339L2.58133 44.4297L2.23386 44.9752L1.93603 45.4215H1.83675L1.73747 45.6694L1.24109 46.3636H1.14181L1.04253 46.562L0.79434 46.9587H0.695063L0.595786 47.157L0.347593 47.4545L0.0497607 47.5041L0.00012207 46.9587V10.5124L0.0497607 9.52065L0.0993994 9.42148Z" fill="#CDB255"/>
<path d="M0.10042 0.347107L0.298974 0.396694L0.596806 0.793388L1.44066 2.2314L2.28452 3.61983L2.68163 4.41322L2.78091 4.95868L2.83055 7.43801V9.12397L2.78091 10.4628L2.53271 10.2149L2.03633 9.42149L1.68886 8.87603L1.04355 7.83471L0.44789 6.89256L0.10042 6.09917L0.0507812 5.85124V0.44628L0.10042 0.347107Z" fill="#CEB357"/>
<path d="M0.0993994 9.42148L0.347593 9.52065L0.44687 9.719L0.198677 9.66941L0.149038 9.91735L0.0993994 23.157H0.0497607L0.00012207 16.0165V10.5124L0.0497607 9.52065L0.0993994 9.42148Z" fill="#E8D498"/>
<path d="M32.8117 0.0495911H33.1095V0.0991778L32.8117 0.198351L32.5635 0.446285L32.5138 0.694219V44.2314L32.3649 44.7273L32.2656 44.7769L32.3649 44.4298L32.4145 38.7769V0.495872L32.4642 0.297525L32.8117 0.0495911Z" fill="#E8D498"/>
<path d="M0.00012207 23.6529H0.0497607L0.0993993 42.1983L0.149038 47.3058L0.347593 47.2562L0.546147 47.157L0.44687 47.3554L0.248315 47.5041H0.0497607L0.00012207 46.9587V23.6529Z" fill="#E8D498"/>
<path d="M0.10042 0.347107L0.298974 0.396694L0.199697 0.545454L0.150059 0.892561L0.10042 5.85124H0.0507812V0.44628L0.10042 0.347107Z" fill="#E8D498"/>
</svg>
