<svg width="24" height="24" viewBox="0 0 24 24" fill="none" xmlns="http://www.w3.org/2000/svg">
<path d="M7.09538 12.6998C7.14961 14.3647 7.39261 15.9344 7.77947 17.3144C8.88033 17.1014 10.0606 16.9722 11.2969 16.9359V12.6998H7.09538ZM8.22089 18.6664C8.98716 20.6434 10.0782 22.1031 11.2969 22.4966V18.3413C10.2248 18.3761 9.19059 18.487 8.22089 18.6664ZM2.57372 4.67306C1.13194 6.52448 0.145734 8.80641 0 11.2935H5.69006C5.74294 9.50241 5.98987 7.8262 6.40195 6.34538C4.91784 5.93719 3.61261 5.36916 2.57372 4.67306ZM7.78364 6.66441C7.39448 8.04792 7.1498 9.62274 7.09538 11.2935H11.2969V7.04747C10.0702 7.01063 8.89266 6.88045 7.78364 6.66441ZM8.22473 5.31764C9.19837 5.49764 10.2287 5.60733 11.2969 5.64202V1.49663C10.0801 1.88948 8.99067 3.34575 8.22473 5.31764ZM18.3099 12.6998C18.2573 14.4818 18.0123 16.1496 17.6039 17.625C19.1088 18.0354 20.3995 18.6167 21.4298 19.3155C22.8694 17.4648 23.8544 15.1848 24 12.6998H18.3099ZM21.4267 4.67363C20.3887 5.37281 19.0877 5.94427 17.5999 6.35222C18.0109 7.83141 18.2572 9.50513 18.3099 11.2935H24C23.8543 8.80664 22.8682 6.525 21.4267 4.67363ZM12.7031 0V0.0382969C14.5566 0.409406 16.1429 2.31605 17.1548 4.99763C18.4512 4.64606 19.5908 4.16747 20.492 3.59653C18.4791 1.56178 15.7408 0.178031 12.7031 0ZM17.1625 18.9758C16.151 21.6684 14.5612 23.5829 12.7031 23.955V23.9933C15.7467 23.8149 18.4893 22.4258 20.5033 20.3843C19.6096 19.8137 18.4783 19.328 17.1625 18.9758ZM16.2174 6.66792C15.1105 6.88233 13.9326 7.01062 12.7031 7.04714V11.2935H16.9046C16.8503 9.62409 16.606 8.05055 16.2174 6.66792ZM3.50147 3.60375C4.40278 4.17942 5.54339 4.6567 6.84173 5.00658C7.85353 2.31998 9.44137 0.409828 11.2969 0.0382969V0C8.25581 0.178266 5.51498 1.56502 3.50147 3.60375ZM12.7031 12.6998V16.936C13.9411 16.972 15.1211 17.1006 16.2212 17.3121C16.6076 15.9327 16.8504 14.3638 16.9046 12.6998H12.7031ZM12.7031 18.3413V22.4966C13.9222 22.103 15.0138 20.6424 15.78 18.6645C14.8108 18.4863 13.7768 18.3758 12.7031 18.3413ZM5.69006 12.6998H0C0.145828 15.1878 1.13273 17.4705 2.57536 19.3223C3.60619 18.6239 4.89586 18.0419 6.3975 17.6305C5.98819 16.1539 5.7428 14.484 5.69006 12.6998ZM6.83911 18.9801C5.52614 19.333 4.39523 19.819 3.50123 20.3892C5.5148 22.428 8.25562 23.815 11.2969 23.9933V23.955C9.43983 23.5831 7.85067 21.6703 6.83911 18.9801ZM12.7031 1.49663V5.64084C13.7662 5.60531 14.7962 5.49389 15.7724 5.31089C15.0065 3.34284 13.9184 1.88906 12.7031 1.49663Z" fill="white"/>
</svg>
