<svg width="32" height="32" viewBox="0 0 32 32" fill="none" xmlns="http://www.w3.org/2000/svg">
<path d="M15.5125 26.1362C14.7108 25.3365 13.4112 25.3365 12.6096 26.1362C13.4112 25.3365 13.4112 24.0399 12.6096 23.2402C11.808 22.4406 10.5083 22.4406 9.70672 23.2402C10.5083 22.4406 10.5083 21.144 9.70672 20.3443C8.90509 19.5446 7.60547 19.5446 6.80384 20.3443C7.60547 19.5446 7.60547 18.2481 6.80384 17.4484C6.00222 16.6487 4.70259 16.6487 3.90097 17.4484L2.52959 18.8164C1.72797 19.6161 1.72797 20.9127 2.52959 21.7123C3.33122 22.512 4.63084 22.512 5.43247 21.7123C4.63084 22.512 4.63084 23.8086 5.43247 24.6082C6.23409 25.4079 7.53372 25.4079 8.33534 24.6082C7.53372 25.4079 7.53372 26.7045 8.33534 27.5042C9.13697 28.3039 10.4366 28.3039 11.2382 27.5042C10.4366 28.3039 10.4366 29.6004 11.2382 30.4001C12.0398 31.1997 13.3395 31.1997 14.1411 30.4001L15.5125 29.032C16.3141 28.2324 16.3141 26.9359 15.5125 26.1362ZM12.5563 11.7073C13.3536 12.5043 14.6461 12.5043 15.4433 11.7073L20.2628 6.88912L28.9873 15.5866L29.5952 14.9831C32.8016 11.7843 32.8016 6.59819 29.5952 3.39944C26.3888 0.200687 21.1902 0.200687 17.9838 3.39944L12.5564 8.82119C11.7592 9.61812 11.7592 10.9103 12.5563 11.7073Z" fill="#5D3F26"/>
<path d="M20.3001 9.66781L16.8517 13.1152C15.2791 14.6872 12.7205 14.6872 11.148 13.1153C10.3863 12.3538 9.96672 11.3412 9.96672 10.2642C9.96672 9.18719 10.3863 8.17462 11.148 7.41312L14.5917 3.97312L14.0162 3.39906C10.8098 0.200313 5.61122 0.200313 2.40484 3.39906C-0.801533 6.59781 -0.801533 11.784 2.40484 14.9827L3.02009 15.5965C4.59703 14.4841 6.79997 14.6316 8.21078 16.0391C8.73028 16.5572 9.09122 17.1917 9.26934 17.8836C9.96724 18.0624 10.6042 18.4256 11.1137 18.935C11.6331 19.4532 11.9941 20.0876 12.1722 20.7796C12.8701 20.9584 13.507 21.3215 14.0165 21.8309C14.5359 22.3491 14.8969 22.9836 15.075 23.6756C15.7729 23.8544 16.4099 24.2175 16.9193 24.7269C17.6842 25.4898 18.1053 26.5046 18.1054 27.5842C18.1054 28.4292 17.8473 29.2346 17.3684 29.9106L17.8589 30.3999C18.6605 31.1996 19.9602 31.1996 20.7618 30.3999C21.5634 29.6002 21.5634 28.3037 20.7618 27.504C21.5634 28.3037 22.863 28.3037 23.6647 27.504C24.4663 26.7043 24.4663 25.4077 23.6647 24.6081C24.4663 25.4077 25.7659 25.4077 26.5675 24.6081C27.3692 23.8084 27.3692 22.5118 26.5675 21.7122C27.3692 22.5119 28.6688 22.5119 29.4704 21.7122C30.272 20.9125 30.272 19.6159 29.4704 18.8162L20.3001 9.66781Z" fill="#5D3F26"/>
</svg>
