<svg width="23" height="24" viewBox="0 0 23 24" fill="none" xmlns="http://www.w3.org/2000/svg">
<path d="M11.2969 5.625C12.8502 5.625 14.1094 4.3658 14.1094 2.8125C14.1094 1.2592 12.8502 0 11.2969 0C9.74357 0 8.48438 1.2592 8.48438 2.8125C8.48438 4.3658 9.74357 5.625 11.2969 5.625Z" fill="#CDB255"/>
<path d="M7.78125 11.9531H14.8125C15.2008 11.9531 15.5156 11.6383 15.5156 11.25V9.14062C15.5156 7.8818 14.9612 6.75019 14.084 5.97656C12.4903 7.38211 10.1056 7.38398 8.50973 5.97656C7.63252 6.75019 7.07812 7.8818 7.07812 9.14062V11.25C7.07812 11.6383 7.39294 11.9531 7.78125 11.9531ZM9.90028 16.8905L7.66884 14.6827C6.65827 13.6806 5.10066 13.5657 3.96469 14.3361C3.72188 14.5008 3.69094 14.8471 3.89836 15.0546L6.69656 17.8528C6.9412 18.0974 6.92803 18.4979 6.66787 18.7259C6.43003 18.9344 6.07106 18.9218 5.84841 18.6972L2.85938 15.6815V8.78906C2.85938 7.99945 2.2193 7.35938 1.42969 7.35938C0.640078 7.35938 0 7.99945 0 8.78906V15.55C-1.34171e-06 15.9845 0.0863148 16.4148 0.253938 16.8157C0.421561 17.2166 0.667151 17.5802 0.976453 17.8855L4.5128 21.3753V23.2969C4.5128 23.6852 4.82761 24 5.21592 24H9.89062C10.2789 24 10.5938 23.6852 10.5938 23.2969V18.5547C10.5937 18.2453 10.5325 17.9389 10.4134 17.6532C10.2944 17.3676 10.12 17.1084 9.90028 16.8905ZM12.6935 16.8905L14.9249 14.6827C15.9355 13.6806 17.4931 13.5657 18.6291 14.3361C18.8719 14.5008 18.9028 14.8471 18.6954 15.0546L15.8972 17.8528C15.6525 18.0974 15.6657 18.4979 15.9259 18.7259C16.1637 18.9344 16.5227 18.9218 16.7453 18.6972L19.7344 15.6815V8.78906C19.7344 7.99945 20.3745 7.35938 21.1641 7.35938C21.9537 7.35938 22.5938 7.99945 22.5938 8.78906V15.55C22.5938 15.9845 22.5074 16.4148 22.3398 16.8157C22.1722 17.2166 21.9266 17.5802 21.6173 17.8855L18.081 21.3753V23.2969C18.081 23.6852 17.7661 24 17.3778 24H12.7031C12.3148 24 12 23.6852 12 23.2969V18.5547C12 18.2453 12.0613 17.9389 12.1803 17.6532C12.2993 17.3676 12.4737 17.1084 12.6935 16.8905Z" fill="#CDB255"/>
</svg>
