<svg width="40" height="40" viewBox="0 0 40 40" fill="none" xmlns="http://www.w3.org/2000/svg">
<g clip-path="url(#clip0_682_54795)">
<path d="M37.3597 13.6493C37.7362 13.1229 37.6138 12.3123 37.0874 11.9369L20.6809 0.218033C20.4821 0.0762238 20.2441 0 19.9999 0C19.7558 0 19.5177 0.0762238 19.319 0.218033L11.7967 5.59108V3.51519C11.7967 2.86745 11.2726 2.3433 10.6248 2.3433C9.97706 2.3433 9.45292 2.86745 9.45292 3.51519V7.26532L2.91251 11.937C2.3861 12.3124 2.2636 13.123 2.64017 13.6494C3.01673 14.1758 3.74799 14.2994 4.27441 13.9217L19.9999 2.61104L35.7255 13.9217C36.2491 14.297 36.982 14.1782 37.3597 13.6493ZM36.4064 40.0001C37.0542 40.0001 37.5783 39.4759 37.5783 38.8282V22.3436C37.5783 21.6958 37.0542 21.1717 36.4064 21.1717C35.7587 21.1717 35.2345 21.6958 35.2345 22.3436V28.203H32.8907V35.2344H35.2345V38.8282C35.2345 39.4759 35.7587 40.0001 36.4064 40.0001ZM3.59346 16.4841C2.94572 16.4841 2.42157 17.0083 2.42157 17.656V38.8282C2.42157 39.4759 2.94572 40.0001 3.59346 40.0001C4.2412 40.0001 4.76535 39.4759 4.76535 38.8282V35.2344H11.7967V28.203H4.76535V17.656C4.76535 17.0083 4.2412 16.4841 3.59346 16.4841ZM15.3124 23.5155C14.6646 23.5155 14.1405 24.0396 14.1405 24.6874V35.2344H30.547V27.0311C30.547 25.0925 28.9699 23.5155 27.0313 23.5155H15.3124Z" fill="#CDB255"/>
<path d="M11.7967 24.6874C11.7967 23.2113 12.7133 21.9497 14.0053 21.4296C13.601 19.9341 12.2482 18.8279 10.6248 18.8279C8.68314 18.8279 7.10913 20.4019 7.10913 22.3436C7.10913 24.2852 8.68314 25.8592 10.6248 25.8592H11.7967V24.6874Z" fill="#CDB255"/>
</g>
<defs>
<clipPath id="clip0_682_54795">
<rect width="40" height="40" fill="white"/>
</clipPath>
</defs>
</svg>
