<svg width="24" height="24" viewBox="0 0 24 24" fill="none" xmlns="http://www.w3.org/2000/svg">
<path d="M2.8125 10.5938C2.8125 10.2052 2.49797 9.89065 2.10938 9.89065H0.703125C0.314531 9.89065 0 10.2052 0 10.5938C0 10.9825 0.314531 11.2969 0.703125 11.2969H2.10938C2.49797 11.2969 2.8125 10.9825 2.8125 10.5938ZM23.2969 9.89065H21.8906C21.502 9.89065 21.1875 10.2052 21.1875 10.5938C21.1875 10.9825 21.502 11.2969 21.8906 11.2969H23.2969C23.6855 11.2969 24 10.9825 24 10.5938C24 10.2052 23.6855 9.89065 23.2969 9.89065ZM3.82687 5.0629L2.60869 4.35977C2.27236 4.16529 1.84242 4.28065 1.64812 4.61721C1.45387 4.95377 1.56923 5.38352 1.90556 5.57777L3.1238 6.2809C3.45797 6.47388 3.88842 6.36148 4.08436 6.02346C4.27861 5.6869 4.1632 5.25715 3.82687 5.0629ZM22.0944 15.6098L20.8762 14.9066C20.5391 14.7129 20.1094 14.8275 19.9156 15.1641C19.7214 15.5006 19.8368 15.9304 20.1731 16.1246L21.3913 16.8278C21.7255 17.0208 22.1559 16.9084 22.3519 16.5703C22.5461 16.2338 22.4308 15.804 22.0944 15.6098ZM6.46912 2.27271C6.66487 2.61073 7.09552 2.72318 7.42969 2.5302C7.76625 2.33571 7.88156 1.90596 7.68713 1.56959L6.984 0.351399C6.78975 0.0157743 6.35775 -0.0997726 6.02344 0.0939618C5.68688 0.288212 5.57156 0.718149 5.766 1.05452L6.46912 2.27271ZM3.12375 14.9066L1.90556 15.6098C1.56923 15.804 1.45387 16.2338 1.64812 16.5703C1.84406 16.9085 2.27452 17.0209 2.60869 16.8278L3.82692 16.1246C4.16325 15.9304 4.27861 15.5006 4.08436 15.1641C3.88936 14.8275 3.45736 14.7129 3.12375 14.9066ZM20.8762 6.2809L22.0944 5.57777C22.4308 5.38352 22.5461 4.95377 22.3519 4.61721C22.1569 4.28065 21.7249 4.16534 21.3913 4.35977L20.1731 5.0629C19.8368 5.25715 19.7214 5.6869 19.9156 6.02346C20.1116 6.36166 20.5421 6.47407 20.8762 6.2809ZM16.5703 2.5302C16.9045 2.72318 17.3351 2.61073 17.5309 2.27271L18.234 1.05452C18.4285 0.718149 18.3131 0.288212 17.9766 0.0939618C17.6407 -0.0995851 17.2102 0.0157743 17.016 0.351399L16.3129 1.56959C16.1184 1.90596 16.2338 2.3359 16.5703 2.5302ZM16.8759 4.58974C15.0597 3.11281 12.6799 2.54501 10.3431 3.03242C7.30758 3.6649 4.91255 6.15382 4.38375 9.2247C3.94078 11.7968 4.78894 14.3971 6.65166 16.1818C7.64264 17.1299 8.24508 18.3986 8.41134 19.7344H11.2969V16.4317L8.64094 12.4477L7.28414 11.0909C7.00945 10.8162 7.00945 10.3713 7.28414 10.0967C7.55883 9.82202 8.00372 9.82198 8.27836 10.0967L9.1875 11.0058L10.0966 10.0967C10.3713 9.82198 10.8162 9.82198 11.0909 10.0967L12 11.0058L12.9091 10.0967C13.1838 9.82198 13.6287 9.82198 13.9034 10.0967L14.8125 11.0058L15.7216 10.0967C15.9963 9.82198 16.4412 9.82198 16.7159 10.0967C16.9905 10.3714 16.9905 10.8162 16.7159 11.0909L15.3591 12.4477L12.7031 16.4317V19.7344H15.5484C15.6305 18.4711 16.2301 17.2339 17.3009 16.2263C18.8472 14.7701 19.7344 12.7169 19.7344 10.5938C19.7344 8.25495 18.6927 6.06668 16.8759 4.58974Z" fill="#CDB255"/>
<path d="M13.4062 11.588L12.4971 12.4971C12.2225 12.7718 11.7775 12.7718 11.5029 12.4971L10.5938 11.588L10.0922 12.0896L12 14.9513L13.9078 12.0896L13.4062 11.588ZM8.48438 21.8906C8.48438 23.0538 9.43069 24 10.5938 24H13.4062C14.5694 24 15.5156 23.0537 15.5156 21.8906V21.1406H8.48438V21.8906Z" fill="#CDB255"/>
</svg>
