<svg width="149" height="141" viewBox="0 0 149 141" fill="none" xmlns="http://www.w3.org/2000/svg">
<g clip-path="url(#clip0_428_55174)">
<path fill-rule="evenodd" clip-rule="evenodd" d="M78.6203 104.416L78.4632 104.274L78.911 104.915L78.6203 104.416ZM79.1673 105.356L79.4439 106.077L79.2986 105.581L79.1673 105.356ZM79.6619 106.819L79.9768 108.398L79.783 107.232L79.6619 106.819ZM79.554 113.637L79.2663 114.386L79.4924 113.933L79.554 113.637ZM78.911 115.099L78.5235 115.681L77.6757 116.446L77.8452 116.361L78.5235 115.681L78.7172 115.487L78.911 115.099ZM77.0701 116.75L76.5856 116.944L76.8763 116.847L77.0701 116.75ZM74.4217 116.685L73.9454 116.446L74.0665 116.555L74.4217 116.685ZM71.9672 106.855L72.0923 106.395L72.0318 106.552L71.9672 106.855ZM72.3224 105.795L72.563 105.216L72.5162 105.29L72.3224 105.795ZM72.9038 104.679L73.2671 104.159L73.1945 104.222L72.9038 104.679ZM73.4205 104.027L74.0665 103.542L75.0354 103.153L74.6478 103.25L74.0665 103.542L73.8727 103.639L73.4205 104.027Z" fill="#FCFBFA"/>
<g clip-path="url(#clip1_428_55174)">
<path fill-rule="evenodd" clip-rule="evenodd" d="M62.6335 102.958H55.4636L55.5605 103.347H57.3045V116.555L55.5605 116.652L55.3667 116.846L55.948 117.04H60.9864L61.1802 116.943L61.0833 116.652H59.6299L59.7268 110.728L59.8237 110.631L60.5019 110.728L60.8895 111.408L62.0522 113.35L63.6993 116.166L64.2807 117.04H67.4781L67.8656 116.943L67.7687 116.652L66.606 116.555L65.2496 114.321L64.0869 112.476L62.8273 110.339H63.2149L64.1838 110.145L65.1527 109.757L66.1216 109.077L66.7998 108.203L67.0905 107.135V105.969L66.9936 105.484L66.7029 104.804L66.1216 104.124L65.3465 103.638L64.2807 103.25L62.6335 102.958ZM59.7268 103.347H61.8584L62.8273 103.541L63.6993 104.027L64.2807 104.707L64.5713 105.386L64.6682 105.872V107.329L64.3776 108.494L63.7962 109.271L62.8273 109.854L61.7615 110.145L59.8237 110.242L59.6299 110.145V103.444L59.7268 103.347Z" fill="white"/>
<path d="M74.9385 102.765H76.7794L78.1359 103.056L79.6861 103.833L80.655 104.61L81.4301 105.678L82.0115 106.844L82.3991 108.106L82.4959 108.883V110.825L82.3022 112.185L81.8177 113.447L81.4301 114.224L80.655 115.293L79.6861 116.167L78.7172 116.749L77.2638 117.235L76.7794 117.332H74.7447L73.1944 116.847L72.0317 116.264L70.9659 115.39L70.0939 114.127L69.6095 113.156L69.2219 111.602L69.125 110.728V109.369L69.4157 107.62L69.9001 106.455L70.4815 105.387L71.3535 104.416L72.4193 103.639L73.582 103.056L74.9385 102.765ZM75.0353 103.153L74.0664 103.542L73.4205 104.027L73.2913 104.124L73.2671 104.159L72.9037 104.679L72.6131 105.095L72.563 105.216L72.3224 105.795L72.1286 106.261L72.0923 106.394L71.9671 106.854L71.8379 107.329L71.7411 107.912V112.088L72.0317 113.545L72.5162 114.807L73.0975 115.681L73.7758 116.361L73.9453 116.446L74.4217 116.685L74.7447 116.847L75.1322 116.944H76.5856L77.0701 116.749L77.5545 116.555L77.6756 116.446L78.5234 115.681L78.911 115.098L79.1048 114.807L79.2663 114.386L79.554 113.636L79.5892 113.545L79.9768 111.602V108.397L79.6619 106.819L79.5892 106.455L79.4439 106.076L79.1673 105.355L79.1048 105.193L78.911 104.915L78.4632 104.274L78.4265 104.221L77.6514 103.542L76.6825 103.153H75.0353Z" fill="white"/>
<path d="M12.0561 102.958H16.61L17.3851 103.93L19.7105 107.232L20.9701 108.98L21.939 110.339L23.1986 112.087L23.7799 112.962L23.9737 113.059L23.8768 104.512L22.0359 103.444L21.7452 103.153V102.958H26.4929L26.2991 103.347L25.8146 103.735L24.6519 104.512L24.555 117.04H23.9737L23.4892 116.555L20.9701 113.059L19.8074 111.408L18.5478 109.66L17.3851 108.009L16.0286 106.163L14.7691 104.318L14.6722 104.027H14.4784L14.5753 115.487L16.4162 116.458L16.9976 116.846V117.04H12.153L12.3468 116.652L13.897 115.584V103.638L13.025 103.444L12.153 103.347L11.9592 103.056L12.0561 102.958Z" fill="white"/>
<path d="M27.7528 102.958H38.3139L38.4108 103.056V106.358H38.0232L37.0543 104.609L36.3761 103.735L35.6978 103.444H31.9191V109.757H35.4072L36.5698 107.717H36.8605V112.379L36.473 112.185L35.4072 110.339L33.1787 110.242H31.9191L31.8222 116.652L36.3761 116.555L36.9574 116.263L37.6356 115.292L38.6046 113.447L39.089 113.059L39.1859 113.253V114.807L38.9921 116.652L38.8952 117.04H27.7528L27.6559 116.652H29.5937L29.4968 103.444L27.7528 103.347V102.958Z" fill="white"/>
<path d="M40.2517 102.958H46.3558L46.2589 103.347H44.3211L44.418 113.35L44.8056 114.807L45.4838 115.875L46.4527 116.458L47.3247 116.652H48.1968L49.747 116.263L50.7159 115.584L51.3942 114.71L51.7817 113.738L51.8786 112.962V104.512L50.5221 103.735L49.747 103.25V102.958H54.3978L54.3009 103.347L52.8475 104.318L52.6537 104.415L52.5569 104.901L52.46 113.35L52.1693 114.515L51.5879 115.487L51.0066 116.166L50.1346 116.749L48.7781 117.235L48.2937 117.332H46.0652L44.7087 116.943L43.8367 116.458L43.1584 115.875L42.4802 114.807L42.1895 113.836L41.9957 111.893V103.347H40.3486L40.2517 102.958Z" fill="white"/>
<path d="M88.891 102.958H99.6459L99.7428 105.484L99.6459 106.358L99.2583 106.163L98.2894 104.609L97.6112 103.735L97.3205 103.541L96.836 103.444H93.1542L93.0573 110.048L96.6423 109.951L97.4174 108.397L97.805 107.911H97.9987V112.573L97.6112 112.476L96.7392 110.728V110.534H93.0573V116.652H95.2858V117.04H89.1817L88.891 116.943L88.9879 116.652H90.8288L90.7319 103.347H88.891V102.958Z" fill="white"/>
<path d="M108.269 102.958H120.09V106.26L119.702 106.066L118.733 104.415L118.249 103.735L117.571 103.444H115.342L115.245 116.652H117.28V117.04H111.176L110.885 116.943L110.982 116.652L112.92 116.555V103.347L110.691 103.444L110.013 103.735L109.335 104.707L108.56 106.066L108.366 106.26H108.075V104.804L108.172 103.056L108.269 102.958Z" fill="white"/>
<path d="M101.002 102.958H107.01V103.347L105.266 103.444L105.169 116.652H107.01V117.04H101.196L101.002 116.943V116.652L102.843 116.555V103.347H101.002V102.958Z" fill="white"/>
</g>
<path d="M28.9504 131.86H30.3635L30.0607 132.162H29.8588L29.9597 135.184L30.3635 135.587V135.687H28.9504V135.385L29.2532 135.184V132.263L28.9504 132.062V131.86Z" fill="white"/>
<path d="M102.327 131.759L102.73 131.86L103.538 133.471L103.74 133.572L104.648 131.86H105.052L104.85 132.464L104.042 133.975L103.942 134.277L103.841 135.687L103.336 135.586V134.277L102.327 132.263V131.759Z" fill="white"/>
<path d="M22.8944 131.759L23.3991 131.961L24.3074 133.572L25.3167 131.86L25.6195 131.759L25.7205 132.061L24.6102 134.176L24.5093 135.687H24.1056L24.0046 134.277L23.1972 132.565L22.8944 132.061V131.759Z" fill="white"/>
<path d="M54.5869 131.759L55.0916 131.961L55.899 133.471L56.1009 133.572L56.3027 133.069L56.9083 131.961L57.312 131.759L57.413 131.961L56.3027 134.176L56.2018 135.687H55.7981L55.5962 134.076L54.5869 132.061V131.759Z" fill="white"/>
<path d="M116.962 131.86H119.788L119.687 132.263L118.778 132.364L118.677 132.465L118.577 135.587L118.173 135.687L118.072 135.587V132.263H116.962V131.86Z" fill="white"/>
<path d="M34.8043 131.86H37.6304V132.263L36.5201 132.364L36.4192 135.687L35.9146 135.587V132.263H34.8043V131.86Z" fill="white"/>
<path d="M82.3423 131.86H85.2693L85.1683 132.263L84.159 132.364L84.0581 135.687L83.5534 135.587V132.263H82.4432L82.3423 131.86Z" fill="white"/>
<path d="M68.2121 131.759L68.6159 131.86L69.4233 133.371V133.572L69.827 133.169L70.5335 131.961L70.9373 131.759L70.8363 132.364L69.928 134.076L69.827 135.586L69.4233 135.687L69.3224 135.586L69.2214 134.176L68.414 132.565L68.1112 131.86L68.2121 131.759Z" fill="white"/>
<path d="M26.9317 131.86H28.2438L28.3447 132.364H26.9317L26.7298 132.565V133.17L28.1429 133.875L28.4457 134.277V134.982L28.0419 135.486L27.5373 135.687H26.6289L26.1243 135.385L26.2252 135.083L26.528 135.184H27.5373L27.941 134.781L27.8401 134.277L26.528 133.572L26.2252 133.17V132.465L26.6289 131.961L26.9317 131.86Z" fill="white"/>
<path d="M89.8113 131.86H91.8299V132.263L90.3159 132.364V133.371L91.8299 133.472L91.7289 133.875H90.3159V135.083L90.4168 135.184L91.8299 135.285L91.7289 135.687H89.8113L89.7103 135.587V131.961L89.8113 131.86Z" fill="white"/>
<path d="M110.401 131.86H112.521V132.263L111.007 132.364V133.371L112.521 133.472V133.774L111.108 133.875L111.007 133.975V135.184L112.521 135.285L112.42 135.687H110.502L110.401 135.587V131.86Z" fill="white"/>
<path d="M64.6798 131.86H65.0835L65.1845 133.371H67.0012L67.1021 131.86L67.6068 131.961V135.587L67.2031 135.687L67.1021 135.587V133.875H65.1845L65.0835 135.687H64.6798V131.86Z" fill="white"/>
<path d="M85.875 131.86H86.2787L86.3796 133.371H88.2973V131.86H88.701V135.687H88.2973V133.875H86.2787V135.687L85.774 135.587V132.565L85.875 131.86Z" fill="white"/>
<path d="M38.2361 131.86L38.6398 131.961L38.7407 133.371H40.4565L40.5575 131.86H41.0621V135.687H40.5575V133.875H38.6398V135.687L38.1351 135.587V133.17L38.2361 131.86Z" fill="white"/>
<path d="M80.1222 131.759L81.0306 131.86L81.7371 132.464L81.939 132.867L82.0399 133.975L81.7371 134.881L81.2325 135.486L80.7278 135.687H79.7185L79.1129 135.284L78.6083 134.479V133.069L78.9111 132.364L79.4157 131.961L80.1222 131.759ZM79.7185 132.263L79.2139 132.766L79.012 133.572L79.1129 134.479L79.5166 135.083L79.8194 135.284H80.7278L81.3334 134.781L81.5353 134.277V133.169L81.2325 132.565L80.8287 132.263H79.7185Z" fill="white"/>
<path d="M108.08 131.86H109.594L109.695 132.263L109.392 132.364H108.181L107.676 132.767L107.474 133.472L107.575 134.58L108.08 135.083L108.282 135.184H109.594L109.493 135.587L109.19 135.687H108.181L107.373 135.285L106.97 134.58L106.869 133.472L107.171 132.465L107.676 132.062L108.08 131.86Z" fill="white"/>
<path d="M71.6441 131.86H73.259L73.8646 132.162L74.4702 132.867L74.5711 133.27V134.177L74.2683 134.882L73.7637 135.385L73.259 135.587L72.6534 135.687H71.6441L71.5432 134.58V132.263L71.6441 131.86ZM72.0479 132.263V135.184L72.1488 135.285H72.8553L73.6627 134.882L74.0665 134.277V133.17L73.6627 132.565L73.1581 132.263H72.0479Z" fill="white"/>
<path d="M120.393 131.86H122.513V132.263L120.898 132.364V133.371L122.412 133.472L122.311 133.875H120.797L120.898 135.285H122.513L122.412 135.687H120.393V131.86Z" fill="white"/>
<path d="M19.3619 131.86L19.8666 131.961L19.9675 133.371H21.6833L21.7843 131.86H22.188L22.2889 132.263V135.587L21.7843 135.687V133.875H19.8666V135.587L19.3619 135.687V131.86Z" fill="white"/>
<path d="M42.1722 131.86H44.1908V132.263L42.5759 132.364V133.371L44.0899 133.472V133.875L42.5759 133.975V135.285H44.1908V135.687H42.1722L42.0713 135.587V131.961L42.1722 131.86Z" fill="white"/>
<path d="M31.9783 131.86H33.2904L33.8959 132.263L34.2997 132.867L34.4006 133.27V134.277L33.9969 135.083L33.3913 135.587L33.0885 135.687H32.1801L31.5746 135.385L31.0699 134.781L30.868 134.277V133.27L31.1708 132.565L31.5746 132.062L31.9783 131.86ZM32.1801 132.263L31.5746 132.767L31.3727 133.27V134.177L31.6755 134.882L32.1801 135.285H33.0885L33.6941 134.781L33.8959 134.378V133.17L33.4922 132.465L33.0885 132.263H32.1801Z" fill="white"/>
<path fill-rule="evenodd" clip-rule="evenodd" d="M60.2387 131.759L60.9452 131.86L61.248 132.162L61.3489 132.766L61.0461 133.27L60.5414 133.471L61.4498 134.378H61.7526L62.0554 133.774H62.4591L62.1563 134.68L62.0554 134.881L62.661 135.687L62.0554 135.586L61.6517 135.284L61.147 135.486L60.7433 135.687H59.8349L59.2293 135.184L59.1284 134.982V134.277L59.6331 133.774L59.8349 133.673L59.6331 133.169L59.5321 132.968V132.263L59.8349 131.86L60.2387 131.759ZM60.8442 132.263L60.2387 132.162L59.9359 132.364V132.867L60.1377 133.169L60.5414 133.27L60.9452 132.766L60.8442 132.263ZM60.0368 133.874L60.5414 134.076L61.248 134.781L60.7433 135.284H59.9359L59.5321 134.781L59.6331 134.277L60.0368 133.874Z" fill="white"/>
<path fill-rule="evenodd" clip-rule="evenodd" d="M49.742 131.86L49.4392 131.759L49.2374 131.86L49.0355 132.364L48.1272 134.781L47.9253 135.687L48.329 135.586L48.7327 134.479L50.2467 134.378V134.579L50.6504 135.586L51.1551 135.687V135.486L50.5495 133.874L49.742 131.86ZM49.4392 132.464L49.742 132.867L50.0448 133.975L49.9439 134.076H48.9346L49.0355 133.471L49.4392 132.464Z" fill="white"/>
<path d="M113.429 131.86H113.934L115.751 134.58L115.852 134.68L115.952 131.86H116.356L116.457 132.062V135.687L115.751 135.587L114.136 133.069L113.934 132.767L113.833 135.587L113.429 135.687V131.86Z" fill="white"/>
<path fill-rule="evenodd" clip-rule="evenodd" d="M53.3755 131.86H51.7606V135.687H52.1643L52.2653 134.277L53.0727 134.177L53.6783 133.975L54.082 133.572V132.465L53.8802 132.162L53.3755 131.86ZM52.2653 132.263H53.2746L53.6783 132.666V133.371L53.1736 133.774H52.2653L52.1643 133.673V132.364L52.2653 132.263Z" fill="white"/>
<path fill-rule="evenodd" clip-rule="evenodd" d="M101.116 131.86H99.5009V135.687L100.006 135.587V134.277L100.813 134.177L101.62 133.875L101.923 133.371V132.666L101.62 132.162L101.116 131.86ZM100.006 132.263H101.015L101.419 132.565V133.371L100.914 133.774H100.006L99.9046 133.673V132.364L100.006 132.263Z" fill="white"/>
<path fill-rule="evenodd" clip-rule="evenodd" d="M17.6464 131.86H16.1324V135.687L16.6371 135.587L16.738 134.277L17.4445 134.177L18.1511 133.875L18.5548 133.27V132.666L18.252 132.162L17.6464 131.86ZM16.738 132.263H17.5455L18.0501 132.666V133.371L17.5455 133.774L16.839 133.875L16.6371 133.774V132.364L16.738 132.263Z" fill="white"/>
<path fill-rule="evenodd" clip-rule="evenodd" d="M97.4819 131.86L97.0782 131.759L96.8763 132.162L95.867 134.781L95.5642 135.687H95.9679L96.1698 135.385L96.4726 134.378L97.8856 134.479L98.3903 135.586L98.8949 135.687V135.385L98.5921 134.68L97.4819 131.86ZM97.1791 132.364L97.381 132.464L97.7847 133.673V134.076H96.6744L96.7754 133.572L97.1791 132.364Z" fill="white"/>
<path fill-rule="evenodd" clip-rule="evenodd" d="M124.935 131.86H123.32V135.687H123.825V134.076L124.532 134.177L124.834 134.68L125.44 135.587L125.945 135.687V135.385L125.339 134.479L125.137 133.975L125.642 133.472L125.743 132.666L125.44 132.062L124.935 131.86ZM123.825 132.263H124.733L125.238 132.565V133.27L124.834 133.673H123.825V132.263Z" fill="white"/>
<path fill-rule="evenodd" clip-rule="evenodd" d="M77.0941 131.86H75.4792V135.587L75.9839 135.687V134.076L76.6904 134.177L77.296 135.184L77.8006 135.687L78.2044 135.587L77.4979 134.479L77.296 133.975L77.8006 133.472L77.9016 132.666L77.6997 132.263L77.0941 131.86ZM75.9839 132.263H76.8923L77.296 132.465L77.3969 132.666V133.27L76.9932 133.673H75.9839V132.263Z" fill="white"/>
<path fill-rule="evenodd" clip-rule="evenodd" d="M46.7142 131.86H45.0993L44.9984 133.069V135.587L45.5031 135.687V134.076L46.3105 134.177L47.1179 135.587L47.7235 135.687V135.486L47.1179 134.58L46.9161 133.975L47.2189 133.673L47.5217 132.968L47.3198 132.263L46.7142 131.86ZM45.5031 132.263H46.6133L47.017 132.565V133.27L46.6133 133.673L45.604 133.774L45.5031 133.673V132.263Z" fill="white"/>
<path fill-rule="evenodd" clip-rule="evenodd" d="M94.2522 131.86H92.7383V135.687H93.2429V134.076L93.9494 134.177L94.2522 134.68L94.8578 135.587L95.3625 135.687V135.486L95.0597 134.982L94.4541 134.076L94.9587 133.472L95.1606 132.867L94.8578 132.162L94.2522 131.86ZM93.2429 132.263H94.1513L94.555 132.465L94.656 133.069L94.3532 133.572L93.3439 133.774L93.142 133.472V132.767L93.2429 132.263Z" fill="white"/>
<path fill-rule="evenodd" clip-rule="evenodd" d="M147.413 0.791992H83.8526L82.4961 0.889109L81.8179 1.37469L81.721 1.76316V76.7372L81.6241 87.8085L81.4303 88.2941L81.0427 88.7797L80.2676 88.9739H79.1049L77.264 88.6826L75.3262 88.0999L73.9697 87.5172L72.1288 86.4489L70.5785 85.2835L69.1252 83.8268L67.9625 82.4671L66.9936 81.2046L65.734 79.5536L63.9899 76.9315L62.6335 74.6978L59.2423 68.9679L56.9169 65.0832L55.948 63.4323L54.6884 61.2957L53.0413 58.5764L50.5221 54.3033L48.8749 51.584L47.2278 48.7676L45.7744 46.3397L44.5149 44.2031L42.9646 41.581L41.8019 39.6387L40.7361 37.8906L39.4765 35.754L36.5698 30.8982L34.9227 28.0818L34.0506 26.625L32.9848 24.8769L31.1439 21.7692L29.8843 19.6326L28.2372 16.8162L27.2683 15.3595L26.8807 15.2624L26.7838 15.5537V25.0712L27.0745 26.2366L27.5589 27.3048L28.6247 29.0529L30.0781 31.3837L31.3377 33.3261L32.7911 35.6569L33.6631 37.2107L34.0506 38.0848L34.2444 39.4444L34.3413 93.6355L34.4382 93.9269L35.0195 93.6355L35.8916 92.5673L37.1511 90.9163L37.3449 90.4307H37.5387L38.4107 89.1682L38.5076 88.7797H38.7014L39.2827 87.8085L39.5734 86.9345L39.6703 72.9497L39.7672 52.8465L39.8641 47.9907L40.2517 48.282L41.0268 49.4474L42.0926 51.0984L43.7397 53.9148L45.3869 56.6341L46.6465 58.7706L47.8091 60.713L49.2625 63.0438L50.9097 65.8602L52.0723 67.7054L53.9133 70.8131L57.4014 76.6401L58.9516 79.1652L60.405 81.5931L62.0521 84.4095L63.021 85.8662L63.9899 87.1287L64.8619 88.197L65.5402 88.8768L66.3153 89.5566L67.3811 90.5278L69.0283 91.6932L70.5785 92.5673L72.1288 93.3442L74.4542 94.1211L77.0702 94.7038L80.0738 94.8009H81.5272L83.9495 94.7038L85.0153 94.5096L87.05 93.9269L89.0847 93.15L91.3132 91.9846L93.251 90.722L94.995 89.4595V89.2653H95.1888L95.5764 88.9739L96.6422 87.9057L97.9986 86.3518L98.7738 85.3806L99.8396 83.8268L100.808 82.0787L101.584 80.3306L102.456 77.7084L102.94 75.4747L103.231 73.241L103.328 41.0954L103.812 40.9012L104.587 40.7069L127.163 40.5127L128.326 40.4156L128.519 40.3185L129.198 39.5415L129.876 38.5704L130.651 37.5021L131.814 35.5598L131.91 34.9771L131.717 34.8799H103.909L103.425 34.3944L103.328 31.8693V8.07574L103.425 7.20169L103.618 7.00746L104.2 6.61899L105.653 6.52188L135.592 6.42476H142.859L143.925 6.32764L144.409 5.84206L145.572 4.19108L146.444 2.92856L147.316 1.37469L147.413 0.791992ZM88.8909 6.42476H96.2546L96.7391 6.61899L97.3204 7.10458L97.4173 7.29881V70.2304L97.2235 72.7555L97.0297 74.4064L96.5453 77.1257L95.8671 79.2623L94.8012 81.3017L93.8323 82.6614L92.9603 83.6325L92.0883 84.5066H91.8945L91.7976 84.7979L90.8287 85.4777H90.6349V85.672H90.3443V85.8662L88.9878 86.6431L88.5033 86.8374L87.8251 86.6431L87.5344 86.4489L87.4375 63.238V27.8875L87.5344 7.29881L88.0189 6.71611L88.8909 6.42476Z" fill="#CDB255"/>
<path d="M18.645 19.2446L19.1294 19.4389L19.9045 20.5071L20.9703 22.2552L22.6175 24.9745L23.3926 26.3341L23.7802 27.3053L23.8771 30.1217L23.7802 86.8378L23.4895 87.809L22.8113 88.8773L22.2299 89.7513H22.0361L21.8424 90.2369L20.8734 91.5966H20.6797L20.4859 91.985L20.0014 92.762H19.8076L19.6139 93.1504L19.1294 93.7331L18.5481 93.8302L18.4512 92.762V21.3812L18.5481 19.4389L18.645 19.2446Z" fill="#CDB255"/>
<path d="M18.645 1.47168L19.0326 1.5688L19.6139 2.34573L21.261 5.16211L22.9082 7.88138L23.6833 9.43525L23.8771 10.5035L23.974 15.3594V18.6613L23.8771 21.2835L23.3926 20.7979L22.4237 19.244L21.7455 18.1757L20.4859 16.1363L19.3232 14.2911L18.645 12.7372L18.5481 12.2516V1.66591L18.645 1.47168Z" fill="#CEB357"/>
<path d="M82.4962 0.88916H83.0776V0.986277L82.4962 1.18051L82.0118 1.66609L81.9149 2.15168V87.4201L81.6242 88.3913L81.4304 88.4884L81.6242 87.8086L81.7211 76.7373V1.76321L81.818 1.37474L82.4962 0.88916Z" fill="#E8D498"/>
<path d="M18.4512 47.1167H18.5481L18.645 83.4383L18.7418 93.4414L19.1294 93.3442L19.517 93.15L19.3232 93.5385L18.9356 93.8298H18.5481L18.4512 92.7615V47.1167Z" fill="#E8D498"/>
<path d="M18.645 19.2446L19.1294 19.4389L19.3232 19.8273L18.8387 19.7302L18.7418 20.2158L18.645 46.1459H18.5481L18.4512 32.1611V21.3812L18.5481 19.4389L18.645 19.2446Z" fill="#E8D498"/>
<path d="M82.4962 0.88916H83.0775V0.986277L82.4962 1.18051L82.0117 1.66609L81.9149 2.15168V18.9529H81.818L81.7211 11.3778V1.76321L81.818 1.37474L82.4962 0.88916Z" fill="#E8D498"/>
<path d="M18.645 1.47168L19.0326 1.5688L18.8388 1.86015L18.7419 2.53996L18.645 12.2516H18.5481V1.66591L18.645 1.47168Z" fill="#E8D498"/>
<path d="M82.4962 0.88916H83.0775V0.986277L82.4962 1.18051L82.0117 1.66609L81.9149 2.15168L81.818 5.45364H81.7211V1.76321L81.818 1.37474L82.4962 0.88916Z" fill="#E5D091"/>
<g clip-path="url(#clip2_428_55174)">
<path d="M131.426 124.033L132.298 124.422L134.914 125.781L137.627 127.141V127.335L131.62 130.346H131.232L131.329 127.821L110.11 127.918H94.8982L5.75851 127.821L5.85541 128.015L5.75851 130.346L5.27406 130.249L3.53002 129.278L1.30153 128.209L-0.442505 127.335V127.141L5.37095 124.227L5.75851 124.13L5.85541 124.519V126.558H127.163L131.329 126.461V124.13L131.426 124.033Z" fill="#E8D498"/>
<path d="M131.426 124.033L132.298 124.422L134.914 125.781L137.627 127.141V127.335L131.62 130.346H131.232L131.329 127.821L110.11 127.918H94.8983L75.2294 127.821L75.3263 127.627L79.9771 127.529L80.8491 127.432L80.946 127.335L81.818 127.238L82.3994 127.141L82.2056 126.947L81.5274 126.85L71.0631 126.752H58.5642L58.758 126.558H127.163L131.329 126.461V124.13L131.426 124.033Z" fill="#E8D498"/>
<path d="M131.426 124.033L132.298 124.422L134.914 125.781L137.627 127.141V127.335L136.464 127.918L135.689 128.112L133.848 128.209H132.492L131.62 128.112L131.426 127.724H125.128L120.671 127.627L119.799 127.335L119.411 126.947L119.896 126.752L126.485 126.655L127.163 126.558L131.329 126.461V124.13L131.426 124.033Z" fill="#CDB254"/>
<path d="M67.3812 126.655H71.063L81.5272 126.752L82.2055 126.85L82.4961 127.141L81.8179 127.335L80.9459 127.432L80.6552 127.529L79.977 127.626L75.3262 127.724H58.7579L54.3009 127.626L53.7195 127.432L53.5258 127.238V126.85L54.4947 126.752L67.3812 126.655Z" fill="#CDB254"/>
<path d="M2.17355 126.267L2.56111 126.364L5.46784 126.461L5.75852 126.656L10.4093 126.753L10.9906 126.85V127.044L10.3124 127.335L9.24659 127.53L5.85541 127.724L5.27406 128.209L3.53002 128.307L1.59221 128.112L0.623296 127.918L-0.442505 127.335V127.141L0.720186 126.558L2.17355 126.267Z" fill="#CDB255"/>
<path d="M131.426 124.033L132.298 124.422L134.914 125.781L136.464 126.558L136.174 126.655L135.205 126.364L133.848 126.461L131.523 126.655H127.163V126.558L131.329 126.461V124.13L131.426 124.033Z" fill="#E8D498"/>
<path d="M5.66147 124.13L5.85526 124.227V126.558H7.40551L10.4091 126.655V126.753H5.75837L5.46769 126.558L2.36718 126.461L2.1734 126.364L0.913818 126.558L1.30138 126.267L2.85164 125.49L4.88635 124.422L5.66147 124.13Z" fill="#E8D498"/>
<path d="M5.66156 127.82L5.85535 128.015L5.75845 130.345L5.274 130.248L3.52996 129.277L1.30147 128.209L0.817017 128.015L1.20458 127.917L2.27038 128.112L4.2082 128.209L5.274 128.112L5.66156 127.82Z" fill="#E8D498"/>
<path d="M4.88635 129.569H5.56459V130.152L5.08013 129.958L4.88635 129.569Z" fill="#CDB254"/>
</g>
</g>
<defs>
<clipPath id="clip0_428_55174">
<rect width="148.204" height="140.193" fill="white"/>
</clipPath>
<clipPath id="clip1_428_55174">
<rect width="115.159" height="14.0193" fill="white" transform="translate(12.0166 103.143)"/>
</clipPath>
<clipPath id="clip2_428_55174">
<rect width="137.189" height="6.00829" fill="white" transform="translate(0 124.171)"/>
</clipPath>
</defs>
</svg>
