<svg width="192" height="48" viewBox="0 0 192 48" fill="none" xmlns="http://www.w3.org/2000/svg">
<path d="M110.234 28.005L110.963 28.3287L113.15 29.4614L115.418 30.5942V30.756L110.396 33.2642H110.072L110.153 31.1605L92.4151 31.2414H79.699L5.18367 31.1605L5.26467 31.3224L5.18367 33.2642L4.7787 33.1833L3.32079 32.3742L1.45791 31.4842L0 30.756V30.5942L4.85969 28.1669L5.18367 28.0859L5.26467 28.4096V30.1087H106.67L110.153 30.0278V28.0859L110.234 28.005Z" fill="#E8D498"/>
<path fill-rule="evenodd" clip-rule="evenodd" d="M52.727 10.4475H46.7333L46.8143 10.7712H48.2722V21.775L46.8143 21.8559L46.6523 22.0177L47.1383 22.1795H51.35L51.512 22.0986L51.431 21.8559H50.2161L50.2971 16.9204L50.3781 16.8394L50.9451 16.9204L51.2691 17.4867L52.241 19.1049L53.6179 21.4513L54.1039 22.1795H56.7767L57.1007 22.0986L57.0197 21.8559L56.0477 21.775L54.9138 19.914L53.9419 18.3767L52.8889 16.5967H53.2129L54.0229 16.4349L54.8328 16.1113L55.6428 15.5449L56.2097 14.8167L56.4527 13.9267V12.9558L56.3717 12.5512L56.1287 11.9848L55.6428 11.4185L54.9948 11.0139L54.1039 10.6903L52.727 10.4475ZM50.2971 10.7712H52.079L52.8889 10.933L53.6179 11.3376L54.1039 11.9039L54.3469 12.4703L54.4279 12.8748V14.0885L54.1849 15.0594L53.6989 15.7067L52.8889 16.1922L51.998 16.4349L50.3781 16.5158L50.2161 16.4349V10.8521L50.2971 10.7712Z" fill="#010101"/>
<path d="M110.233 28.005L110.962 28.3287L113.149 29.4614L115.417 30.5942V30.756L110.395 33.2642H110.071L110.152 31.1605L92.4145 31.2414H79.6983L63.2563 31.1605L63.3373 30.9987L67.2251 30.9178L67.954 30.8369L68.035 30.756L68.764 30.6751L69.2499 30.5942L69.0879 30.4323L68.521 30.3514L59.7735 30.2705H49.3252L49.4872 30.1087H106.67L110.152 30.0278V28.0859L110.233 28.005Z" fill="#E8D498"/>
<path d="M63.014 10.2857H64.5529L65.6868 10.5284L66.9827 11.1757L67.7927 11.823L68.4406 12.713L68.9266 13.6839L69.2506 14.7358L69.3316 15.383V17.0013L69.1696 18.134L68.7646 19.1858L68.4406 19.8331L67.7927 20.7231L66.9827 21.4513L66.1728 21.9368L64.9579 22.3413L64.5529 22.4222H62.852L61.5561 22.0177L60.5841 21.5322L59.6932 20.804L58.9642 19.7522L58.5593 18.9431L58.2353 17.6485L58.1543 16.9203V15.7876L58.3973 14.3312L58.8023 13.3603L59.2882 12.4703L60.0172 11.6612L60.9081 11.0139L61.8801 10.5284L63.014 10.2857ZM63.095 10.6093L62.285 10.933L61.7451 11.3375L61.6371 11.4184L61.6168 11.4473L61.3131 11.8808L61.0701 12.2276L61.0282 12.328L60.8271 12.8101L60.6651 13.1985L60.6348 13.3097L60.5301 13.6929L60.4222 14.0885L60.3412 14.5739V18.0531L60.5841 19.2667L60.9891 20.3186L61.4751 21.0468L62.0421 21.6131L62.1838 21.6839L62.582 21.8828L62.852 22.0177L63.176 22.0986H64.3909L64.7959 21.9368L65.2009 21.775L65.3021 21.6839L66.0108 21.0468L66.3348 20.5613L66.4968 20.3186L66.6318 19.968L66.8723 19.3432L66.9017 19.2667L67.2257 17.6485V14.9785L66.9625 13.6637L66.9017 13.3603L66.7802 13.0447L66.549 12.4442L66.4968 12.3085L66.3348 12.0773L65.9605 11.5431L65.9298 11.4994L65.2818 10.933L64.4719 10.6093H63.095Z" fill="#010101"/>
<path d="M10.4472 10.4475H14.254L14.9019 11.2566L16.8458 14.0076L17.8987 15.464L18.7087 16.5967L19.7616 18.0531L20.2476 18.7813L20.4096 18.8622L20.3286 11.7421L18.7897 10.8521L18.5467 10.6094V10.4475H22.5154L22.3535 10.7712L21.9485 11.0948L20.9765 11.7421L20.8955 22.1795H20.4096L20.0046 21.775L17.8987 18.8622L16.9268 17.4867L15.8739 16.0303L14.9019 14.6549L13.768 13.1176L12.7151 11.5803L12.6341 11.3376H12.4721L12.5531 20.885L14.092 21.6941L14.5779 22.0177V22.1795H10.5282L10.6902 21.8559L11.9861 20.9659V11.0139L11.2572 10.8521L10.5282 10.7712L10.3662 10.5285L10.4472 10.4475Z" fill="#010101"/>
<path d="M23.5692 10.4475H32.3976L32.4786 10.5285V13.2794H32.1546L31.3447 11.823L30.7777 11.0948L30.2107 10.8521H27.0519V16.1113H29.9677L30.9397 14.4121H31.1827V18.2958L30.8587 18.134L29.9677 16.5967L28.1049 16.5158H27.0519L26.9709 21.8559L30.7777 21.775L31.2637 21.5322L31.8306 20.7231L32.6406 19.1858L33.0456 18.8622L33.1265 19.024V20.3186L32.9646 21.8559L32.8836 22.1795H23.5692L23.4882 21.8559H25.1081L25.0271 10.8521L23.5692 10.7712V10.4475Z" fill="#010101"/>
<path d="M34.0175 10.4475H39.1201L39.0391 10.7712H37.4192L37.5002 19.1049L37.8242 20.3186L38.3912 21.2086L39.2011 21.6941L39.9301 21.8559H40.659L41.955 21.5322L42.7649 20.9659L43.3319 20.2377L43.6558 19.4286L43.7368 18.7813V11.7421L42.6029 11.0948L41.955 10.6903V10.4475H45.8427L45.7617 10.7712L44.5468 11.5803L44.3848 11.6612L44.3038 12.0657L44.2228 19.1049L43.9798 20.0759L43.4939 20.885L43.0079 21.4513L42.2789 21.9368L41.145 22.3413L40.74 22.4223H38.8771L37.7432 22.0986L37.0143 21.6941L36.4473 21.2086L35.8803 20.3186L35.6374 19.5095L35.4754 17.8913V10.7712H34.0985L34.0175 10.4475Z" fill="#010101"/>
<path d="M74.6768 10.4475H83.6672L83.7482 12.5512L83.6672 13.2794L83.3432 13.1176L82.5333 11.823L81.9663 11.0948L81.7233 10.933L81.3183 10.8521H78.2405L78.1595 16.354L81.1563 16.2731L81.8043 14.9785L82.1283 14.574H82.2903V18.4577L81.9663 18.3767L81.2373 16.9204V16.7585H78.1595V21.8559H80.0224V22.1795H74.9197L74.6768 22.0986L74.7578 21.8559H76.2967L76.2157 10.7712H74.6768V10.4475Z" fill="#010101"/>
<path d="M90.8759 10.4475H100.757V13.1985L100.433 13.0367L99.6233 11.6612L99.2183 11.0948L98.6514 10.8521H96.7885L96.7075 21.8559H98.4084V22.1795H93.3057L93.0627 22.0986L93.1437 21.8559L94.7636 21.775V10.7712L92.9007 10.8521L92.3338 11.0948L91.7668 11.9039L91.1188 13.0367L90.9569 13.1985H90.7139V11.9848L90.7949 10.5285L90.8759 10.4475Z" fill="#010101"/>
<path d="M84.8007 10.4475H89.8223V10.7712L88.3644 10.8521L88.2834 21.8559H89.8223V22.1795H84.9626L84.8007 22.0986V21.8559L86.3396 21.775V10.7712H84.8007V10.4475Z" fill="#010101"/>
<path d="M110.233 28.005L110.962 28.3287L113.149 29.4614L115.416 30.5942V30.756L114.445 31.2414L113.797 31.4033L112.258 31.4842H111.124L110.395 31.4033L110.233 31.0796H104.968L101.242 30.9987L100.513 30.756L100.189 30.4323L100.594 30.2705L106.102 30.1896L106.669 30.1087L110.152 30.0278V28.0859L110.233 28.005Z" fill="#CDB254"/>
<path d="M56.6965 30.1896H59.7743L68.5218 30.2705L69.0887 30.3515L69.3317 30.5942L68.7648 30.756L68.0358 30.8369L67.7928 30.9178L67.2259 30.9987L63.3381 31.0796H49.488L45.7622 30.9987L45.2762 30.8369L45.1143 30.6751V30.3515L45.9242 30.2705L56.6965 30.1896Z" fill="#CDB254"/>
<path d="M2.18686 29.866L2.51084 29.9469L4.94069 30.0278L5.18367 30.1896L9.07142 30.2705L9.55739 30.3514V30.5132L8.99043 30.756L8.09949 30.9178L5.26467 31.0796L4.7787 31.4842L3.32079 31.5651L1.70089 31.4033L0.890943 31.2414L0 30.756V30.5942L0.971938 30.1087L2.18686 29.866Z" fill="#CDB255"/>
<path fill-rule="evenodd" clip-rule="evenodd" d="M27.5376 34.6397H26.4847L26.1607 34.8015L25.8367 35.2061L25.5938 35.7725V36.5816L25.7557 36.9861L26.1607 37.4716L26.6467 37.7143H27.3756L27.6186 37.6334L28.1046 37.2288L28.4286 36.5816V35.7725L28.3476 35.4488L28.0236 34.9634L27.5376 34.6397ZM26.6467 34.9634L26.1607 35.3679L25.9987 35.7725V36.5006L26.2417 37.067L26.6467 37.3907H27.3756L27.8616 36.9861L28.0236 36.6625V35.6915L27.6996 35.1252L27.3756 34.9634H26.6467Z" fill="#FAF8F2"/>
<path fill-rule="evenodd" clip-rule="evenodd" d="M65.8483 34.6397L65.1193 34.5588L64.5524 34.7206L64.1474 35.0442L63.9044 35.6106V36.7434L64.3094 37.3906L64.7954 37.7143H65.6053L66.0103 37.5525L66.4153 37.067L66.6582 36.3388L66.5772 35.4488L66.4153 35.1251L65.8483 34.6397ZM64.7954 34.9633L64.3904 35.3679L64.2284 36.0152L64.3094 36.7434L64.6334 37.2288L64.8764 37.3906H65.6053L66.0913 36.9861L66.2533 36.5815V35.6915L66.0103 35.2061L65.6863 34.9633H64.7954Z" fill="#FAF8F3"/>
<path fill-rule="evenodd" clip-rule="evenodd" d="M59.6112 34.6397H58.3152L58.2343 34.9633V36.8243L58.3152 37.7143H59.1252L59.6112 37.6334L60.0161 37.4715L60.4211 37.067L60.6641 36.5006V35.7724L60.5831 35.4488L60.0971 34.8824L59.6112 34.6397ZM58.6392 34.9633V37.3097L58.7202 37.3906H59.2872L59.9351 37.067L60.2591 36.5815V35.6915L59.9351 35.2061L59.5302 34.9633H58.6392Z" fill="#FAF9F3"/>
<path fill-rule="evenodd" clip-rule="evenodd" d="M49.1634 34.5588L49.7304 34.6397L49.9734 34.8824L50.0543 35.3679L49.8114 35.7724L49.4064 35.9343L50.1353 36.6624H50.3783L50.6213 36.177H50.9453L50.7023 36.9052L50.6213 37.067L51.1073 37.7143L50.6213 37.6334L50.2973 37.3906L49.8924 37.5525L49.5684 37.7143H48.8394L48.3535 37.3097L48.2725 37.1479V36.5815L48.6774 36.177L48.8394 36.0961L48.6774 35.6915L48.5964 35.5297V34.9633L48.8394 34.6397L49.1634 34.5588ZM49.6494 34.9633L49.1634 34.8824L48.9204 35.0442V35.4488L49.0824 35.6915L49.4064 35.7724L49.7304 35.3679L49.6494 34.9633ZM49.0014 36.2579L49.4064 36.4197L49.9734 36.9861L49.5684 37.3906H48.9204L48.5964 36.9861L48.6774 36.5815L49.0014 36.2579Z" fill="#010101"/>
<path d="M110.234 28.005L110.963 28.3287L113.15 29.4614L114.445 30.1087L114.202 30.1896L113.392 29.9469L112.259 30.0278L110.315 30.1896H106.67V30.1087L110.153 30.0278V28.0859L110.234 28.005Z" fill="#E8D498"/>
<path d="M5.10168 28.086L5.26367 28.1669V30.1087H6.55959L9.07043 30.1896V30.2705H5.18268L4.93969 30.1087L2.34786 30.0278L2.18587 29.9469L1.13293 30.1087L1.45691 29.866L2.75283 29.2187L4.45372 28.3287L5.10168 28.086Z" fill="#E8D498"/>
<path fill-rule="evenodd" clip-rule="evenodd" d="M101.081 34.6397H99.7852V37.7143H100.19V36.4197L100.757 36.5006L101 36.9052L101.486 37.6334L101.891 37.7143V37.4716L101.405 36.7434L101.243 36.3388L101.648 35.9343L101.729 35.287L101.486 34.8015L101.081 34.6397ZM100.19 34.9634H100.919L101.324 35.2061V35.7725L101 36.0961H100.19V34.9634Z" fill="#010101"/>
<path fill-rule="evenodd" clip-rule="evenodd" d="M38.3095 34.6397H37.0136L36.9326 35.6106V37.6334L37.3376 37.7143V36.4197L37.9856 36.5006L38.6335 37.6334L39.1195 37.7143V37.5525L38.6335 36.8243L38.4715 36.3388L38.7145 36.0961L38.9575 35.5297L38.7955 34.9634L38.3095 34.6397ZM37.3376 34.9634H38.2285L38.5525 35.2061V35.7725L38.2285 36.0961L37.4186 36.177L37.3376 36.0961V34.9634Z" fill="#010101"/>
<path fill-rule="evenodd" clip-rule="evenodd" d="M62.6895 34.6397H61.3936V37.6334L61.7985 37.7143V36.4197L62.3655 36.5006L62.8515 37.3097L63.2564 37.7143L63.5804 37.6334L63.0135 36.7434L62.8515 36.3388L63.2564 35.9343L63.3374 35.287L63.1754 34.9634L62.6895 34.6397ZM61.7985 34.9634H62.5275L62.8515 35.1252L62.9325 35.287V35.7725L62.6085 36.0961H61.7985V34.9634Z" fill="#010101"/>
<path fill-rule="evenodd" clip-rule="evenodd" d="M76.4589 34.6397H75.244V37.7143H75.649V36.4197L76.216 36.5006L76.4589 36.9052L76.9449 37.6334L77.3499 37.7143V37.5524L77.1069 37.1479L76.6209 36.4197L77.0259 35.9342L77.1879 35.4488L76.9449 34.8824L76.4589 34.6397ZM75.649 34.9633H76.3779L76.7019 35.1251L76.7829 35.6106L76.5399 36.0152L75.73 36.177L75.568 35.9342V35.3679L75.649 34.9633Z" fill="#010101"/>
<path fill-rule="evenodd" clip-rule="evenodd" d="M14.9845 34.6397H13.7695V37.7143L14.1745 37.6334L14.2555 36.5816L14.8225 36.5006L15.3894 36.2579L15.7134 35.7725V35.287L15.4704 34.8824L14.9845 34.6397ZM14.2555 34.9634H14.9035L15.3084 35.287V35.8534L14.9035 36.177L14.3365 36.2579L14.1745 36.177V35.0443L14.2555 34.9634Z" fill="#010101"/>
<path fill-rule="evenodd" clip-rule="evenodd" d="M81.9668 34.6397H80.6709V37.7143L81.0759 37.6334V36.5816L81.7238 36.5006L82.3718 36.2579L82.6148 35.8534V35.287L82.3718 34.8824L81.9668 34.6397ZM81.0759 34.9634H81.8858L82.2098 35.2061V35.8534L81.8048 36.177H81.0759L80.9949 36.0961V35.0443L81.0759 34.9634Z" fill="#010101"/>
<path fill-rule="evenodd" clip-rule="evenodd" d="M43.6554 34.6397H42.3595V37.7143H42.6835L42.7645 36.5815L43.4124 36.5006L43.8984 36.3388L44.2224 36.0152V35.1251L44.0604 34.8824L43.6554 34.6397ZM42.7645 34.9633H43.5744L43.8984 35.287V35.8533L43.4934 36.177H42.7645L42.6835 36.0961V35.0442L42.7645 34.9633Z" fill="#010101"/>
<path d="M5.10345 31.1605L5.26544 31.3223L5.18445 33.2642L4.77947 33.1833L3.32157 32.3742L1.45869 31.4842L1.05371 31.3223L1.37769 31.2414L2.26863 31.4033L3.88853 31.4842L4.77947 31.4033L5.10345 31.1605Z" fill="#E8D498"/>
<path d="M91.8478 34.6397H92.2528L93.7107 36.8243L93.7917 36.9052L93.8727 34.6397H94.1966L94.2776 34.8015V37.7143L93.7107 37.6334L92.4147 35.6106L92.2528 35.3679L92.1718 37.6334L91.8478 37.7143V34.6397Z" fill="#010101"/>
<path fill-rule="evenodd" clip-rule="evenodd" d="M40.7401 34.6397L40.4971 34.5588L40.3352 34.6397L40.1732 35.0442L39.4442 36.9861L39.2822 37.7143L39.6062 37.6334L39.9302 36.7434L41.1451 36.6624V36.8243L41.4691 37.6334L41.8741 37.7143V37.5525L41.3881 36.2579L40.7401 34.6397ZM40.4971 35.1251L40.7401 35.4488L40.9831 36.3388L40.9021 36.4197H40.0922L40.1732 35.9343L40.4971 35.1251Z" fill="#010101"/>
<path fill-rule="evenodd" clip-rule="evenodd" d="M79.0505 34.6397L78.7265 34.5588L78.5645 34.8824L77.7546 36.9861L77.5116 37.7143H77.8356L77.9976 37.4715L78.2406 36.6624L79.3745 36.7434L79.7795 37.6334L80.1844 37.7143V37.4715L79.9414 36.9052L79.0505 34.6397ZM78.8075 35.0442L78.9695 35.1251L79.2935 36.0961V36.4197H78.4025L78.4835 36.0152L78.8075 35.0442Z" fill="#010101"/>
<path d="M26.4847 34.6397H27.5376L28.0236 34.9634L28.3476 35.4488L28.4286 35.7725V36.5816L28.1046 37.2288L27.6186 37.6334L27.3756 37.7143H26.6467L26.1607 37.4716L25.7557 36.9861L25.5938 36.5816V35.7725L25.8367 35.2061L26.1607 34.8015L26.4847 34.6397ZM26.6467 34.9634L26.1607 35.3679L25.9987 35.7725V36.5006L26.2417 37.067L26.6467 37.3907H27.3756L27.8616 36.9861L28.0236 36.6625V35.6915L27.6996 35.1252L27.3756 34.9634H26.6467Z" fill="#010101"/>
<path d="M16.3594 34.6397L16.7643 34.7206L16.8453 35.8534H18.2223L18.3033 34.6397H18.6272L18.7082 34.9634V37.6334L18.3033 37.7143V36.2579H16.7643V37.6334L16.3594 37.7143V34.6397Z" fill="#010101"/>
<path d="M58.3152 34.6397H59.6112L60.0971 34.8824L60.5831 35.4488L60.6641 35.7724V36.5006L60.4211 37.067L60.0161 37.4715L59.6112 37.6334L59.1252 37.7143H58.3152L58.2343 36.8243V34.9633L58.3152 34.6397ZM58.6392 34.9633V37.3097L58.7202 37.3906H59.2872L59.9351 37.067L60.2591 36.5815V35.6915L59.9351 35.2061L59.5302 34.9633H58.6392Z" fill="#010101"/>
<path d="M65.1193 34.5588L65.8483 34.6397L66.4153 35.1251L66.5772 35.4488L66.6582 36.3388L66.4153 37.067L66.0103 37.5525L65.6053 37.7143H64.7954L64.3094 37.3906L63.9044 36.7434V35.6106L64.1474 35.0442L64.5524 34.7206L65.1193 34.5588ZM64.7954 34.9633L64.3904 35.3679L64.2284 36.0152L64.3094 36.7434L64.6334 37.2288L64.8764 37.3906H65.6053L66.0913 36.9861L66.2533 36.5815V35.6915L66.0103 35.2061L65.6863 34.9633H64.7954Z" fill="#010101"/>
<path d="M31.5069 34.6397L31.8309 34.7206L31.9119 35.8533H33.2888L33.3698 34.6397H33.7748V37.7143H33.3698V36.2579H31.8309V37.7143L31.4259 37.6334V35.6915L31.5069 34.6397Z" fill="#010101"/>
<path d="M69.7372 34.6397H70.0612L70.1422 35.8534H71.6811V34.6397H72.0051V37.7143H71.6811V36.2579H70.0612V37.7143L69.6562 37.6334V35.2061L69.7372 34.6397Z" fill="#010101"/>
<path d="M52.7275 34.6397H53.0515L53.1325 35.8534H54.5904L54.6714 34.6397L55.0764 34.7206V37.6334L54.7524 37.7143L54.6714 37.6334V36.2579H53.1325L53.0515 37.7143H52.7275V34.6397Z" fill="#010101"/>
<path d="M89.4178 34.6397H91.1187V34.9633L89.9038 35.0442V35.8533L91.1187 35.9342V36.177L89.9848 36.2579L89.9038 36.3388V37.3097L91.1187 37.3906L91.0377 37.7143H89.4988L89.4178 37.6334V34.6397Z" fill="#010101"/>
<path d="M72.8954 34.6397H74.5153V34.9634L73.3004 35.0443V35.8534L74.5153 35.9343L74.4344 36.2579H73.3004V37.2288L73.3814 37.3097L74.5153 37.3907L74.4344 37.7143H72.8954L72.8145 37.6334V34.7206L72.8954 34.6397Z" fill="#010101"/>
<path d="M34.666 34.6397H36.2859V34.9633L34.9899 35.0442V35.8533L36.2049 35.9342V36.2579L34.9899 36.3388V37.3906H36.2859V37.7143H34.666L34.585 37.6334V34.7206L34.666 34.6397Z" fill="#010101"/>
<path d="M97.4355 34.6397H99.1364V34.9634L97.8405 35.0443V35.8534L99.0554 35.9343L98.9744 36.2579H97.7595L97.8405 37.3907H99.1364L99.0554 37.7143H97.4355V34.6397Z" fill="#010101"/>
<path d="M87.5559 34.6397H88.7708L88.8518 34.9634L88.6089 35.0443H87.6369L87.2319 35.3679L87.07 35.9343L87.1509 36.8243L87.5559 37.2288L87.7179 37.3097H88.7708L88.6899 37.6334L88.4469 37.7143H87.6369L86.989 37.3907L86.665 36.8243L86.584 35.9343L86.827 35.1252L87.2319 34.8015L87.5559 34.6397Z" fill="#010101"/>
<path d="M22.4341 34.6397H23.487L23.568 35.0443H22.4341L22.2721 35.2061V35.6915L23.406 36.2579L23.649 36.5816V37.1479L23.325 37.5525L22.9201 37.7143H22.1911L21.7861 37.4716L21.8671 37.2288L22.1101 37.3097H22.9201L23.244 36.9861L23.163 36.5816L22.1101 36.0152L21.8671 35.6915V35.1252L22.1911 34.7206L22.4341 34.6397Z" fill="#010101"/>
<path d="M55.5624 34.5588L55.8864 34.6397L56.5344 35.8533V36.0152L56.8584 35.6915L57.4253 34.7206L57.7493 34.5588L57.6683 35.0442L56.9394 36.4197L56.8584 37.6334L56.5344 37.7143L56.4534 37.6334L56.3724 36.5006L55.7244 35.2061L55.4814 34.6397L55.5624 34.5588Z" fill="#010101"/>
<path d="M66.9014 34.6397H69.2502L69.1692 34.9634L68.3593 35.0443L68.2783 37.7143L67.8733 37.6334V34.9634H66.9824L66.9014 34.6397Z" fill="#010101"/>
<path d="M28.752 34.6397H31.0198V34.9634L30.1289 35.0443L30.0479 37.7143L29.6429 37.6334V34.9634H28.752V34.6397Z" fill="#010101"/>
<path d="M94.6826 34.6397H96.9505L96.8695 34.9634L96.1405 35.0443L96.0595 35.1252L95.9785 37.6334L95.6546 37.7143L95.5736 37.6334V34.9634H94.6826V34.6397Z" fill="#010101"/>
<path d="M44.6279 34.5588L45.0329 34.7206L45.6809 35.9343L45.8429 36.0152L46.0048 35.6106L46.4908 34.7206L46.8148 34.5588L46.8958 34.7206L46.0048 36.5006L45.9238 37.7143H45.5999L45.4379 36.4197L44.6279 34.8015V34.5588Z" fill="#010101"/>
<path d="M19.1953 34.5588L19.6003 34.7206L20.3292 36.0152L21.1392 34.6397L21.3822 34.5588L21.4632 34.8015L20.5722 36.5006L20.4912 37.7143H20.1673L20.0863 36.5815L19.4383 35.2061L19.1953 34.8015V34.5588Z" fill="#010101"/>
<path d="M82.9395 34.5588L83.2634 34.6397L83.9114 35.9343L84.0734 36.0152L84.8023 34.6397H85.1263L84.9643 35.1251L84.3164 36.3388L84.2354 36.5815L84.1544 37.7143L83.7494 37.6334V36.5815L82.9395 34.9633V34.5588Z" fill="#010101"/>
<path d="M24.0548 34.6397H25.1887L24.9458 34.8824H24.7838L24.8648 37.3097L25.1887 37.6334V37.7143H24.0548V37.4715L24.2978 37.3097V34.9633L24.0548 34.8015V34.6397Z" fill="#010101"/>
<path d="M4.45312 32.6169H5.02009V33.1024L4.61511 32.9406L4.45312 32.6169Z" fill="#CDB254"/>
<path fill-rule="evenodd" clip-rule="evenodd" d="M191.773 0H159.21L158.515 0.0495868L158.168 0.297521L158.118 0.495868V38.7769L158.068 44.4298L157.969 44.6777L157.771 44.9256L157.374 45.0248H156.778L155.835 44.876L154.842 44.5785L154.147 44.281L153.204 43.7355L152.41 43.1405L151.665 42.3967L151.069 41.7025L150.573 41.0578L149.928 40.2149L149.034 38.876L148.339 37.7355L146.602 34.8099L145.411 32.8264L144.914 31.9835L144.269 30.8926L143.425 29.5041L142.134 27.3223L141.291 25.9339L140.447 24.4959L139.702 23.2562L139.057 22.1653L138.263 20.8264L137.667 19.8347L137.121 18.9421L136.476 17.8512L134.987 15.3719L134.143 13.9339L133.696 13.1901L133.15 12.2975L132.207 10.7107L131.561 9.61983L130.718 8.18182L130.221 7.43802L130.023 7.38843L129.973 7.53719V12.3967L130.122 12.9917L130.37 13.5372L130.916 14.4298L131.661 15.6198L132.306 16.6116L133.051 17.8017L133.497 18.595L133.696 19.0413L133.795 19.7355L133.845 47.405L133.894 47.5537L134.192 47.405L134.639 46.8595L135.284 46.0165L135.384 45.7686H135.483L135.93 45.124L135.979 44.9256H136.079L136.376 44.4298L136.525 43.9835L136.575 36.843L136.625 26.5785L136.674 24.0992L136.873 24.2479L137.27 24.843L137.816 25.6859L138.66 27.124L139.504 28.5124L140.149 29.6033L140.745 30.595L141.489 31.7851L142.333 33.2231L142.929 34.1653L143.872 35.7521L145.659 38.7273L146.453 40.0165L147.198 41.2562L148.041 42.6942L148.538 43.438L149.034 44.0826L149.481 44.6281L149.828 44.9752L150.226 45.3223L150.772 45.8182L151.615 46.4132L152.41 46.8595L153.204 47.2562L154.395 47.6529L155.735 47.9504L157.274 48H158.019L159.26 47.9504L159.806 47.8512L160.848 47.5537L161.891 47.157L163.032 46.562L164.025 45.9174L164.919 45.2727V45.1736H165.018L165.216 45.0248L165.762 44.4793L166.457 43.686L166.855 43.1901L167.401 42.3967L167.897 41.5041L168.294 40.6116L168.741 39.2727L168.989 38.1322L169.138 36.9917L169.188 20.5785L169.436 20.4793L169.833 20.3802L181.399 20.281L181.994 20.2314L182.094 20.1818L182.441 19.7851L182.789 19.2893L183.186 18.7438L183.781 17.7521L183.831 17.4545L183.732 17.405H169.485L169.237 17.157L169.188 15.8678V3.71901L169.237 3.27273L169.336 3.17355L169.634 2.97521L170.379 2.92562L185.717 2.87603H189.44L189.986 2.82645L190.234 2.57851L190.83 1.73554L191.277 1.09091L191.723 0.297521L191.773 0ZM161.791 2.87603H165.564L165.812 2.97521L166.11 3.22314L166.16 3.32231V35.4545L166.06 36.7438L165.961 37.5868L165.713 38.9752L165.365 40.0661L164.819 41.1074L164.323 41.8017L163.876 42.2975L163.429 42.7438H163.33L163.281 42.8926L162.784 43.2397H162.685V43.3388H162.536V43.438L161.841 43.8347L161.593 43.9339L161.245 43.8347L161.096 43.7355L161.047 31.8843V13.8347L161.096 3.32231L161.345 3.02479L161.791 2.87603Z" fill="#CDB255"/>
<path d="M125.803 9.42148L126.051 9.52065L126.448 10.0661L126.994 10.9587L127.838 12.3471L128.235 13.0413L128.434 13.5372L128.483 14.9752L128.434 43.9339L128.285 44.4297L127.937 44.9752L127.64 45.4215H127.54L127.441 45.6694L126.945 46.3636H126.845L126.746 46.562L126.498 46.9587H126.399L126.299 47.157L126.051 47.4545L125.753 47.5041L125.704 46.9587V10.5124L125.753 9.52065L125.803 9.42148Z" fill="#CDB255"/>
<path d="M125.804 0.347107L126.002 0.396694L126.3 0.793388L127.144 2.2314L127.988 3.61983L128.385 4.41322L128.484 4.95868L128.534 7.43801V9.12397L128.484 10.4628L128.236 10.2149L127.74 9.42149L127.392 8.87603L126.747 7.83471L126.151 6.89256L125.804 6.09917L125.754 5.85124V0.44628L125.804 0.347107Z" fill="#CEB357"/>
<path d="M125.803 9.42148L126.051 9.52065L126.15 9.719L125.902 9.66941L125.853 9.91735L125.803 23.157H125.753L125.704 16.0165V10.5124L125.753 9.52065L125.803 9.42148Z" fill="#E8D498"/>
<path d="M158.515 0.0495911H158.813V0.0991778L158.515 0.198351L158.267 0.446285L158.217 0.694219V44.2314L158.068 44.7273L157.969 44.7769L158.068 44.4298L158.118 38.7769V0.495872L158.168 0.297525L158.515 0.0495911Z" fill="#E8D498"/>
<path d="M125.704 23.6529H125.753L125.803 42.1983L125.853 47.3058L126.051 47.2562L126.25 47.157L126.15 47.3554L125.952 47.5041H125.753L125.704 46.9587V23.6529Z" fill="#E8D498"/>
<path d="M125.804 0.347107L126.002 0.396694L125.903 0.545454L125.854 0.892561L125.804 5.85124H125.754V0.44628L125.804 0.347107Z" fill="#E8D498"/>
</svg>
