<svg width="40" height="40" viewBox="0 0 40 40" fill="none" xmlns="http://www.w3.org/2000/svg">
<g clip-path="url(#clip0_682_54835)">
<path d="M40 13.4375V11.0937C40 9.23771 38.5541 7.71412 36.7298 7.58763C37.0243 7.50317 37.2739 7.30671 37.4253 7.04037L39.7691 2.91349C40.0887 2.35076 39.8916 1.63545 39.3288 1.31584C38.7659 0.995915 38.0506 1.19326 37.731 1.75615L36.4063 4.08865L35.0816 1.75607C34.7619 1.19326 34.0466 0.996149 33.4838 1.31576C32.921 1.63537 32.7239 2.35068 33.0435 2.91341L35.3873 7.04029C35.4653 7.17759 35.5703 7.29769 35.696 7.39337C35.8216 7.48906 35.9653 7.55835 36.1184 7.59709C34.3513 7.78076 32.9688 9.27873 32.9688 11.0937V13.4375C32.9688 15.3761 34.5459 16.9531 36.4844 16.9531C38.4229 16.9531 40 15.376 40 13.4375ZM32.9688 20.4687V22.8125C32.9688 24.7511 34.5459 26.3281 36.4844 26.3281C38.4229 26.3281 40 24.751 40 22.8125V20.4687C40 18.5301 38.4229 16.9531 36.4844 16.9531C34.5459 16.9531 32.9688 18.5301 32.9688 20.4687ZM32.9688 29.8437V32.1875C32.9688 32.8261 33.1408 33.425 33.4396 33.9416C32.8084 33.3396 31.9548 32.9687 31.0156 32.9687H28.6719C26.7334 32.9687 25.1563 34.5458 25.1563 36.4844C25.1563 38.4229 26.7334 40 28.6719 40H31.0156C32.9541 40 34.5313 38.4229 34.5313 36.4844C34.5313 35.8458 34.3592 35.2469 34.0604 34.7302C34.6916 35.3322 35.5452 35.7031 36.4844 35.7031C38.4229 35.7031 40 34.126 40 32.1875V29.8437C40 27.9051 38.4229 26.3281 36.4844 26.3281C34.5459 26.3281 32.9688 27.9051 32.9688 29.8437Z" fill="#CDB255"/>
<path d="M21.6407 32.9687H19.297C18.5818 32.9681 17.8837 33.1869 17.2967 33.5955C17.6533 33.0345 17.8424 32.3834 17.8419 31.7187V29.375C17.8419 27.8472 16.8621 26.5447 15.4981 26.0609V24.7855C15.1097 24.7253 14.7172 24.6954 14.3241 24.696C13.8852 24.696 13.4967 24.7263 13.1544 24.7764V26.061C11.7904 26.5447 10.8106 27.8473 10.8106 29.3751V31.7188C10.8106 33.6574 12.3877 35.2344 14.3263 35.2344C15.0414 35.235 15.7396 35.0163 16.3265 34.6076C15.9699 35.1686 15.7808 35.8197 15.7813 36.4844C15.7813 38.423 17.3584 40.0001 19.297 40.0001H21.6407C23.5792 40.0001 25.1563 38.423 25.1563 36.4844C25.1563 34.5459 23.5792 32.9687 21.6407 32.9687Z" fill="#CDB255"/>
<path d="M14.297 16.4844C14.9442 16.4844 15.4688 15.9597 15.4688 15.3125C15.4688 14.6653 14.9442 14.1406 14.297 14.1406C13.6497 14.1406 13.1251 14.6653 13.1251 15.3125C13.1251 15.9597 13.6497 16.4844 14.297 16.4844Z" fill="#CDB255"/>
<path d="M9.20977 24.3161C9.21758 24.3115 10.3073 22.3522 14.324 22.3522C16.6198 22.3522 18.6558 23.1117 19.3904 24.2421C19.4037 24.2625 19.4191 24.2805 19.4334 24.2998L19.4427 24.3161L18.9004 27.062C18.775 27.6969 19.1881 28.3133 19.8231 28.4387C20.4593 28.564 21.0746 28.15 21.1998 27.5161L21.5998 25.4909C23.7986 25.9185 23.7426 25.9324 23.9454 25.9324C24.4934 25.9324 24.9833 25.5459 25.0937 24.9878C25.2193 24.3529 24.8066 23.7363 24.1716 23.6107L21.4288 23.0678C21.3988 23.0185 21.3597 22.9337 21.2698 22.8215C19.7391 20.0857 21.8926 13.9242 24.2964 13.2595L24.4873 13.2299L26.8566 14.7203C27.4054 15.0655 28.1286 14.899 28.4725 14.3523C28.8171 13.8044 28.6523 13.081 28.1045 12.7363L26.3572 11.6372L27.5069 9.81107C27.8517 9.26334 27.6873 8.53982 27.1395 8.19498C26.5918 7.85006 25.8683 8.01451 25.5234 8.56224L24.0338 10.9283C23.9692 10.9353 23.9196 10.9395 23.8548 10.954C22.5134 11.2553 20.1672 10.3379 18.1497 8.72326C17.1459 7.91982 15.4982 6.27834 15.4982 4.99974V3.98849L17.5309 2.01209C17.9949 1.56091 18.0054 0.818962 17.5542 0.354899C17.1031 -0.109007 16.3612 -0.119398 15.8971 0.331618L14.3498 1.83591L12.9114 0.355212C12.4605 -0.108851 11.7186 -0.119632 11.2543 0.331227C10.7901 0.782165 10.7794 1.52412 11.2303 1.98834L13.1543 3.96888L13.1521 4.98662C13.1521 5.97045 12.1073 7.44232 10.4906 8.73638C6.93789 11.5799 4.66852 10.9171 4.61867 10.9285L3.12899 8.5624C2.78414 8.01474 2.06063 7.85037 1.51289 8.19513C0.965237 8.53998 0.800784 9.26349 1.14555 9.81123L2.29524 11.6373L0.54805 12.7365C0.000237077 13.0811 -0.164529 13.8046 0.180081 14.3525C0.523597 14.8985 1.24633 15.0661 1.79602 14.7204L4.16524 13.2301C4.17313 13.2355 5.75938 13.2837 7.07922 16.5236C8.03102 18.86 8.14469 21.4761 7.36954 22.8382C7.28711 22.945 7.26977 22.9916 7.22368 23.0679L4.48086 23.6108C3.84594 23.7364 3.43313 24.353 3.55883 24.9879C3.68446 25.6227 4.30078 26.0355 4.93586 25.91L7.05274 25.491L7.45266 27.5162C7.57789 28.15 8.19289 28.5643 8.82938 28.4388C9.4643 28.3134 9.87743 27.697 9.75203 27.0621L9.20977 24.3161ZM14.297 11.7969C16.2355 11.7969 17.8126 13.374 17.8126 15.3125C17.8126 17.251 16.2355 18.8281 14.297 18.8281C12.3584 18.8281 10.7813 17.251 10.7813 15.3125C10.7813 13.374 12.3584 11.7969 14.297 11.7969Z" fill="#CDB255"/>
</g>
<defs>
<clipPath id="clip0_682_54835">
<rect width="40" height="40" fill="white"/>
</clipPath>
</defs>
</svg>
