<svg width="40" height="40" viewBox="0 0 40 40" fill="none" xmlns="http://www.w3.org/2000/svg">
<g clip-path="url(#clip0_682_54849)">
<path d="M30.4348 4.78263H23.913C22.8351 4.78263 22.3779 5.28185 20.7593 6.49583C22.1392 7.09521 23.9121 8.84521 24.8686 9.99997H30.4348C31.8733 9.99997 33.0434 8.82982 33.0434 7.3913C33.0434 5.95278 31.8733 4.78263 30.4348 4.78263ZM30.907 18.4623C30.7252 17.5177 30.4821 16.5859 30.1793 15.6728C29.9516 14.9886 29.2154 14.6188 28.5301 14.8451C27.8465 15.0718 27.4762 15.8103 27.703 16.4938C27.9703 17.2996 28.1851 18.1219 28.3459 18.9556C28.4656 19.5797 29.0125 20.0137 29.6248 20.0137C29.7071 20.0137 29.7895 20.0056 29.8727 19.99C30.5801 19.8537 31.0437 19.1696 30.907 18.4623ZM12.6087 0.434814C10.4509 0.434814 8.69563 2.19013 8.69563 4.34786C8.69563 6.5056 10.4509 8.26091 12.6087 8.26091C14.7664 8.26091 16.5217 6.5056 16.5217 4.34786C16.5217 2.19013 14.7664 0.434814 12.6087 0.434814Z" fill="#CDB255"/>
<path d="M38.3815 20.3313C37.3663 20.5837 36.3871 20.9633 35.467 21.4611C32.6575 22.9778 29.3194 23.0029 26.4841 21.5591C26.1591 16.7732 23.6648 11.5054 19.982 9.02388C19.2085 8.54872 18.0138 8.55716 17.1296 9.21755L12.6087 12.6088H6.95656C5.51805 12.6088 4.34789 13.779 4.34789 15.2175C4.34789 16.656 5.51805 17.8261 6.95656 17.8261H13.4783C14.0388 17.8261 14.595 17.6406 15.0442 17.3039L18.6176 14.6234C19.4149 15.7598 20.3206 16.7506 21.0005 20.0158C18.8084 19.914 16.5973 20.3812 14.5976 21.461C11.7189 23.015 8.28133 23.015 5.40266 21.461C4.17727 20.7995 2.86867 20.3524 1.51422 20.132C1.32763 20.1013 1.13658 20.1116 0.954413 20.1624C0.772246 20.2131 0.603354 20.3031 0.459531 20.4258C0.315558 20.5483 0.199901 20.7006 0.120558 20.8721C0.0412161 21.0437 8.18073e-05 21.2304 0 21.4194V38.2609C0 38.9815 0.584297 39.5653 1.30437 39.5653H38.6957C39.4158 39.5653 40.0001 38.9815 40.0001 38.2609V21.5973C40 20.7551 39.2144 20.1298 38.3815 20.3313ZM17.829 36.9565C19.2806 36.9547 20.4348 35.894 20.4348 33.9008C20.4348 32.8644 20.517 32.389 21.0173 28.0783C23.0673 31.774 23.9955 33.7709 26.4173 36.1927C26.9078 36.6836 27.5593 36.9542 28.2522 36.9565H17.829V36.9565ZM37.3913 36.9565H28.2695C28.9625 36.9542 29.614 36.6836 30.1052 36.1918C31.1038 35.1936 31.132 33.6027 30.1698 32.5704C28.7298 31.0273 27.5475 28.9399 26.7399 27.0189C25.523 26.4815 23.4138 25.2055 20.4373 25.2055C19.05 25.2055 17.3938 25.568 16.5735 25.9222C16.0316 27.2044 15.2173 30.3912 15.2173 34.3479C15.2173 35.7853 16.3857 36.9547 17.8218 36.9565H2.60867V23.0814C3.14512 23.2613 3.66505 23.4872 4.16266 23.7565C7.8175 25.73 12.1824 25.73 15.8373 23.7565C18.7159 22.2026 22.1535 22.2026 25.0322 23.7565C28.687 25.73 33.052 25.73 36.7068 23.7565C36.9306 23.6356 37.1589 23.5233 37.3913 23.4198V36.9565H37.3913Z" fill="#CDB255"/>
</g>
<defs>
<clipPath id="clip0_682_54849">
<rect width="40" height="40" fill="white"/>
</clipPath>
</defs>
</svg>
