<svg width="32" height="32" viewBox="0 0 32 32" fill="none" xmlns="http://www.w3.org/2000/svg">
<path d="M12.0366 14.2722L14.009 12.2999C11.8368 11.5255 9.31309 12.0062 7.57693 13.7424C5.1751 16.1445 5.1751 20.0522 7.57693 22.454C9.9789 24.856 13.8867 24.856 16.2882 22.454C18.0213 20.7215 18.5039 18.2052 17.7362 16.0363L15.7585 18.014C15.7795 19.0209 15.4074 20.0342 14.6408 20.8007C13.1494 22.2925 10.7221 22.2925 9.22998 20.8007C7.7386 19.3092 7.7386 16.8817 9.22998 15.3903C10.0018 14.6185 11.0233 14.2464 12.0366 14.2722Z" fill="#5D3F26"/>
<path d="M19.0807 14.6918C20.4796 17.6332 19.9633 21.2658 17.5318 23.6974C14.4446 26.7846 9.42114 26.7846 6.33399 23.6974C3.2468 20.6103 3.2468 15.5868 6.33399 12.4996C8.76892 10.0645 12.4087 9.54996 15.3525 10.9564L18.3066 8.00233C13.6939 5.08971 7.50657 5.64124 3.49112 9.65674C-1.16362 14.3114 -1.16362 21.8855 3.49112 26.5402C8.14581 31.1949 15.7198 31.1949 20.3746 26.5402C24.3866 22.5283 24.941 16.3474 22.0361 11.7364L19.0807 14.6918Z" fill="#5D3F26"/>
<path d="M29.9414 4.03666C29.8098 3.65856 29.4811 3.39541 29.0832 3.34928L26.9302 3.10098L26.6818 0.948248C26.6359 0.550326 26.3727 0.221685 25.9946 0.0898255C25.6167 -0.0418465 25.206 0.052091 24.9229 0.335169L20.6668 4.59128C20.5562 4.70123 20.4721 4.83487 20.4208 4.9821C20.3695 5.12933 20.3524 5.28629 20.3707 5.44113L20.6786 8.10949L12.637 16.1509C11.9068 15.8889 11.0574 16.0493 10.4737 16.6334C9.66723 17.4396 9.66723 18.7516 10.4737 19.5576C11.2797 20.3638 12.5915 20.364 13.3978 19.5576C13.9819 18.9735 14.1423 18.1244 13.8803 17.394L21.9218 9.35243L24.5902 9.66058C24.745 9.67885 24.902 9.66167 25.0492 9.61035C25.1964 9.55902 25.3301 9.4749 25.44 9.36433L29.6961 5.10841C29.9792 4.82514 30.0733 4.41461 29.9414 4.03666Z" fill="#5D3F26"/>
</svg>
