<svg width="21" height="24" viewBox="0 0 21 24" fill="none" xmlns="http://www.w3.org/2000/svg">
<path d="M20.2844 5.2718C17.7653 5.2718 15.7158 3.22228 15.7158 0.703125C15.7158 0.314766 15.401 0 15.0127 0H11.2469C10.8587 0 10.5438 0.314766 10.5438 0.703125V16.1422C10.5438 17.6232 9.33877 18.828 7.8578 18.828C6.37683 18.828 5.172 17.6232 5.172 16.1422C5.172 14.6611 6.37683 13.4563 7.8578 13.4563C8.24616 13.4563 8.56092 13.1415 8.56092 12.7531V8.98734C8.56092 8.59922 8.24616 8.28422 7.8578 8.28422C3.52495 8.28422 0 11.8094 0 16.1422C0 20.475 3.525 24 7.8578 24C12.1906 24 15.7158 20.475 15.7158 16.1422V9.30816C17.115 10.0543 18.6724 10.4438 20.2844 10.4438C20.6728 10.4438 20.9875 10.129 20.9875 9.74067V5.97492C20.9875 5.58675 20.6728 5.2718 20.2844 5.2718Z" fill="black"/>
</svg>
