<svg width="32" height="32" viewBox="0 0 32 32" fill="none" xmlns="http://www.w3.org/2000/svg">
<g clip-path="url(#clip0_378_54802)">
<path d="M10.6875 26.0625C10.6875 27.2706 11.6669 28.25 12.875 28.25H19.125C20.3331 28.25 21.3125 27.2706 21.3125 26.0625V25H10.6875V26.0625ZM14.4375 32H17.5625C18.5981 32 19.4375 31.1606 19.4375 30.125H12.5625C12.5625 31.1606 13.4019 32 14.4375 32ZM2.8125 11.875C3.33025 11.875 3.75 11.4552 3.75 10.9375C3.75 10.4198 3.33025 10 2.8125 10H0.9375C0.41975 10 0 10.4198 0 10.9375C0 11.4552 0.41975 11.875 0.9375 11.875H2.8125ZM3.90625 4.81313L2.28244 3.87562C1.83406 3.61675 1.26069 3.77038 1.00181 4.21875C0.742937 4.66712 0.896562 5.2405 1.34494 5.49937L2.96875 6.43687C3.41712 6.69575 3.9905 6.54212 4.24937 6.09375C4.50825 5.64538 4.35462 5.072 3.90625 4.81313ZM4.24937 15.7812C3.9905 15.3329 3.41712 15.1792 2.96875 15.4381L1.34494 16.3756C0.896562 16.6345 0.742937 17.2079 1.00181 17.6562C1.26069 18.1046 1.83406 18.2582 2.28244 17.9994L3.90625 17.0619C4.35462 16.803 4.50825 16.2296 4.24937 15.7812ZM31.0625 10H29.1875C28.6698 10 28.25 10.4198 28.25 10.9375C28.25 11.4552 28.6698 11.875 29.1875 11.875H31.0625C31.5802 11.875 32 11.4552 32 10.9375C32 10.4198 31.5802 10 31.0625 10ZM29.0312 6.43687L30.655 5.49937C31.1034 5.2405 31.257 4.66712 30.9981 4.21875C30.7393 3.77038 30.1659 3.61675 29.7175 3.87562L28.0938 4.81313C27.6454 5.072 27.4918 5.64538 27.7506 6.09375C28.0095 6.54212 28.5829 6.69575 29.0312 6.43687ZM30.655 16.3756L29.0312 15.4381C28.5829 15.1792 28.0095 15.3329 27.7506 15.7812C27.4918 16.2296 27.6454 16.803 28.0938 17.0619L29.7175 17.9994C30.1659 18.2582 30.7393 18.1046 30.9981 17.6562C31.257 17.2079 31.1034 16.6345 30.655 16.3756ZM16 0C9.96912 0 5.06256 4.9065 5.0625 10.9374C5.0625 10.7309 5.1305 10.5245 5.2665 10.3537C5.46081 10.1096 10.0931 4.375 16 4.375C21.9069 4.375 26.5392 10.1096 26.7335 10.3537C26.8657 10.5195 26.9376 10.7253 26.9374 10.9374C26.9374 4.9065 22.0309 0 16 0ZM26.7335 11.5213C26.5392 11.7654 21.9069 17.5 16 17.5C10.0931 17.5 5.46081 11.7654 5.2665 11.5213C5.13436 11.3555 5.06244 11.1497 5.0625 10.9376C5.06256 14.0623 6.4065 17.044 8.74975 19.1183C9.90344 20.1396 10.5961 21.5858 10.6791 23.125H21.3209C21.4039 21.5858 22.0966 20.1396 23.2502 19.1183C25.5935 17.044 26.9374 14.0623 26.9375 10.9376C26.9375 11.1441 26.8695 11.3505 26.7335 11.5213Z" fill="#5D3F26"/>
<path d="M7.24819 10.9375C7.77962 11.5092 8.69575 12.4172 9.87106 13.2826C9.59131 12.5539 9.4375 11.7634 9.4375 10.9375C9.4375 10.1116 9.59131 9.32106 9.871 8.59244C8.69569 9.45775 7.77962 10.3658 7.24819 10.9375ZM24.7528 10.9385C24.2216 10.3671 23.3051 9.45837 22.129 8.59244C22.4162 9.34088 22.5632 10.1358 22.5625 10.9375C22.5625 11.7661 22.4077 12.5592 22.1262 13.2898C23.3046 12.4227 24.2215 11.5116 24.7528 10.9385Z" fill="#5D3F26"/>
<path d="M16 11.875C16.5178 11.875 16.9375 11.4553 16.9375 10.9375C16.9375 10.4197 16.5178 10 16 10C15.4822 10 15.0625 10.4197 15.0625 10.9375C15.0625 11.4553 15.4822 11.875 16 11.875Z" fill="#5D3F26"/>
<path d="M20.6875 10.9375C20.6875 8.35281 18.5847 6.25 16 6.25C13.4153 6.25 11.3125 8.35281 11.3125 10.9375C11.3125 13.5222 13.4153 15.625 16 15.625C18.5847 15.625 20.6875 13.5222 20.6875 10.9375ZM13.1875 10.9375C13.1875 9.38669 14.4492 8.125 16 8.125C17.5508 8.125 18.8125 9.38669 18.8125 10.9375C18.8125 12.4883 17.5508 13.75 16 13.75C14.4492 13.75 13.1875 12.4883 13.1875 10.9375Z" fill="#5D3F26"/>
</g>
<defs>
<clipPath id="clip0_378_54802">
<rect width="32" height="32" fill="white"/>
</clipPath>
</defs>
</svg>
