<svg width="24" height="19" viewBox="0 0 24 19" fill="none" xmlns="http://www.w3.org/2000/svg">
<path d="M10.357 10.9973L14.3197 8.8663L10.357 6.698L10.357 10.9973Z" fill="black"/>
<path d="M23.8234 4.29032L23.8223 4.27935C23.802 4.08618 23.5997 2.36775 22.7644 1.49395C21.7988 0.465983 20.7042 0.341109 20.1778 0.281249C20.1342 0.276093 20.0943 0.271734 20.0586 0.266953L20.0166 0.262593C16.8438 0.0318749 12.0521 0.000374999 12.0042 0H11.9958C11.9478 0.000374999 7.15611 0.0318749 3.9547 0.262593L3.91241 0.266953C3.87834 0.271546 3.84079 0.275765 3.79996 0.280546C3.2796 0.340546 2.1967 0.465655 1.22845 1.53056C0.432843 2.3954 0.202875 4.0768 0.17925 4.2658L0.176531 4.29032C0.169359 4.37071 0 6.28438 0 8.2055V10.0014C0 11.9225 0.169359 13.8362 0.176531 13.9166L0.177797 13.9288C0.19814 14.1187 0.400265 15.8055 1.23173 16.6798C2.13961 17.6735 3.28748 17.8048 3.90491 17.8755C4.00251 17.8866 4.08674 17.8963 4.14384 17.9064L4.19934 17.9139C6.0313 18.0884 11.7751 18.1743 12.0186 18.1778L12.026 18.1779L12.0331 18.1778C12.0813 18.1776 16.8728 18.1461 20.0456 17.9152L20.0875 17.9109C20.1275 17.9057 20.1725 17.9009 20.2219 17.8958C20.7396 17.8408 21.8164 17.7268 22.7715 16.6763C23.5671 15.8115 23.7971 14.1301 23.8207 13.9411L23.8234 13.9166C23.8306 13.8362 24 11.9225 24 10.0014V8.2055C24 6.28433 23.8306 4.3709 23.8234 4.29032ZM15.6879 9.72748L10.3857 12.5786C10.244 12.6554 10.0853 12.6957 9.92412 12.696C9.75181 12.696 9.57987 12.6494 9.42481 12.557C9.12781 12.3793 8.95053 12.0668 8.95053 11.7209V5.96849C8.95053 5.62096 9.12889 5.30783 9.42772 5.1306C9.72654 4.95355 10.0871 4.94713 10.3919 5.11396L15.6941 8.01523C15.848 8.09936 15.9763 8.2235 16.0655 8.37454C16.1546 8.52558 16.2013 8.6979 16.2006 8.87328C16.2 9.04864 16.1521 9.22059 16.0618 9.37096C15.9716 9.52132 15.8424 9.6445 15.6879 9.72748Z" fill="black"/>
</svg>
